<?xml version="1.0" encoding="UTF-8" standalone="no"?>
<!DOCTYPE svg PUBLIC "-//W3C//DTD SVG 1.1//EN" "http://www.w3.org/Graphics/SVG/1.1/DTD/svg11.dtd">
<svg width="100%" height="100%" viewBox="0 0 4167 1115" version="1.1" xmlns="http://www.w3.org/2000/svg" xmlns:xlink="http://www.w3.org/1999/xlink" xml:space="preserve" xmlns:serif="http://www.serif.com/" style="fill-rule:evenodd;clip-rule:evenodd;stroke-linejoin:round;stroke-miterlimit:2;">
    <g transform="matrix(4.16667,0,0,4.16667,-208.333,-1041.67)">
        <path id="path2987" d="M310.872,516.052C310.872,515.275 310.631,514.788 310.337,514.97C310.042,515.152 309.434,514.421 308.985,513.346C308.511,512.212 307.78,511.392 307.244,511.392C306.514,511.392 306.455,511.229 306.963,510.617C307.457,510.022 307.44,509.787 306.893,509.603C306.332,509.414 306.356,509.148 307.008,508.355C307.639,507.587 307.671,507.292 307.146,507.115C306.766,506.987 306.456,506.64 306.456,506.344C306.456,506.048 306.701,505.957 307.001,506.143C307.314,506.336 307.407,506.115 307.218,505.623C307.037,505.152 307.173,504.767 307.52,504.767C307.98,504.767 307.99,504.467 307.56,503.662C307.085,502.775 307.14,502.558 307.838,502.558C308.541,502.558 308.575,502.416 308.016,501.818C307.301,501.053 305.913,501.737 306.094,502.765C306.141,503.031 305.888,503.356 305.533,503.487C305.107,503.644 304.995,503.307 305.206,502.503C305.381,501.831 305.3,501.413 305.024,501.575C304.749,501.736 304.026,501.685 303.419,501.462C302.543,501.14 302.801,500.973 304.661,500.654C306.124,500.404 307.008,499.959 307.008,499.473C307.008,499.044 307.49,498.694 308.08,498.694C308.67,498.694 309.493,498.208 309.908,497.615C310.653,496.552 313.465,495.101 314.377,495.31C314.634,495.369 316.249,495.063 317.965,494.63C319.681,494.197 322.639,493.667 324.537,493.453C326.435,493.239 328.127,492.84 328.296,492.566C328.465,492.293 329.148,492.063 329.814,492.056C330.479,492.049 332.514,491.31 334.336,490.412C336.157,489.515 338.068,488.775 338.582,488.769C339.095,488.762 339.669,488.508 339.856,488.204C340.044,487.9 339.917,487.652 339.575,487.652C338.809,487.652 339.085,485.183 339.856,485.129C340.16,485.108 341.498,484.779 342.829,484.398C344.16,484.017 345.856,483.857 346.597,484.043C347.338,484.229 348.733,484.138 349.697,483.84C350.661,483.543 352.836,483.028 354.531,482.697C359.181,481.787 361.664,481.027 361.664,480.513C361.664,479.981 333.342,480.352 326.33,480.977C322.636,481.305 321.227,481.215 319.705,480.554C318.643,480.092 317.649,479.678 317.497,479.634C317.345,479.59 316.495,479.254 315.608,478.888C314.72,478.521 313.602,478.374 313.123,478.561C312.644,478.747 305.296,478.989 296.794,479.098C288.292,479.207 280.218,479.544 278.851,479.846C277.485,480.148 273.39,480.684 269.752,481.037C266.113,481.389 262.661,481.932 262.08,482.243C261.499,482.554 259.81,482.692 258.327,482.549C256.844,482.407 255.497,482.507 255.333,482.772C255.169,483.037 254.804,483.11 254.522,482.936C254.239,482.761 254.008,482.881 254.008,483.203C254.008,483.524 253.821,483.738 253.594,483.678C252.675,483.435 247.935,484.439 247.935,484.877C247.935,485.416 243.764,486.311 242.187,486.111C241.607,486.038 240.666,486.478 240.096,487.091C239.525,487.703 238.633,488.233 238.114,488.269C237.594,488.305 235.679,488.388 233.857,488.454C232.035,488.519 229.55,488.859 228.336,489.21C227.121,489.561 225.189,489.987 224.042,490.158C222.895,490.328 222.091,490.686 222.256,490.953C222.77,491.784 221.543,492.002 211.951,492.782C211.441,492.823 211.069,493.093 211.123,493.38C211.177,493.668 210.724,494.049 210.117,494.228C209.51,494.407 208.386,494.98 207.619,495.501C206.616,496.183 204.525,496.549 200.166,496.804C196.833,497 193.533,497.134 192.831,497.102C192.129,497.07 190.792,497.439 189.859,497.921C188.896,498.419 188.016,498.579 187.823,498.291C187.347,497.585 185.404,496.907 185.829,497.596C186.278,498.322 185.741,498.285 184.271,497.488C181.304,495.88 167.259,497.102 165.793,499.096C165.34,499.713 165.29,500.13 165.655,500.251C165.97,500.356 166.227,500.662 166.227,500.931C166.227,501.199 165.879,501.286 165.454,501.123C165.03,500.96 164.518,501.092 164.318,501.416C163.782,502.283 167.091,502.157 168.876,501.243C169.696,500.824 171.485,500.298 172.852,500.074C174.218,499.85 175.771,499.587 176.302,499.488C176.834,499.39 177.268,499.635 177.268,500.032C177.268,500.544 177.955,500.702 179.615,500.572C181.428,500.43 181.739,500.517 180.983,500.955C180.445,501.267 180.13,501.723 180.282,501.969C180.609,502.499 177.523,503.032 171.547,503.478C168.192,503.728 167.097,503.629 166.725,503.042C166.376,502.491 166.241,502.472 166.235,502.972C166.223,503.989 162.904,503.825 161.715,502.749C161.16,502.246 160.706,502.07 160.706,502.357C160.706,502.674 158.914,502.73 156.151,502.5C153.646,502.291 149.733,501.984 147.456,501.816C145.179,501.649 142.499,501.223 141.502,500.87C140.504,500.517 139.07,500.347 138.314,500.491C137.558,500.636 136.783,500.5 136.592,500.191C136.378,499.844 136.522,499.799 136.966,500.074C137.416,500.352 137.555,500.304 137.334,499.947C136.919,499.274 134.286,498.665 131.169,498.52C129.331,498.435 128.951,498.219 128.901,497.231C128.848,496.171 129.228,496 132.49,495.622C134.496,495.39 136.759,495.253 137.518,495.319L138.899,495.438L137.434,494.642C134.893,493.261 132.417,492.679 127.581,492.324C125,492.135 121.273,491.575 119.3,491.079C114.76,489.938 99.009,489.851 98.322,490.963C98.085,491.345 97.6,491.477 97.243,491.257C96.32,490.687 86.16,490.495 86.506,491.054C86.829,491.577 86.747,491.586 79.525,491.805C74.428,491.96 72.276,492.148 64.644,493.11C61.163,493.548 59.129,493.297 57.14,492.184C56.307,491.717 56.486,491.452 58.492,490.186C60.11,489.165 62.087,488.564 65.071,488.187C70.163,487.543 75.021,486.732 78.521,485.942C80.615,485.469 81.033,485.176 80.813,484.338C80.656,483.735 80.226,483.434 79.771,483.609C79.346,483.772 78.998,483.631 78.998,483.294C78.998,482.958 79.432,482.679 79.964,482.675C80.79,482.668 80.81,482.589 80.102,482.131C79.578,481.793 79.521,481.593 79.947,481.588C80.318,481.583 80.476,481.206 80.3,480.748C80.078,480.17 80.629,479.629 82.112,478.97L84.242,478.023L78.848,477.69C75.882,477.507 71.969,477.383 70.153,477.413C68.337,477.444 66.852,477.438 66.852,477.4C66.852,477.362 67.349,476.758 67.956,476.058C68.563,475.358 69.06,474.953 69.06,475.158C69.06,475.364 69.62,475.165 70.303,474.717C70.987,474.269 73.388,473.617 75.639,473.267C77.89,472.918 80.716,472.285 81.919,471.861C83.121,471.437 85.006,471.081 86.106,471.07C89.181,471.04 96.926,469.026 94.686,468.839C94.408,468.816 93.683,468.682 93.076,468.543C92.469,468.403 91.668,468.222 91.298,468.141C90.034,467.864 89.954,467.327 91.12,466.956C91.76,466.753 92.933,465.985 93.726,465.25C94.52,464.514 95.724,463.912 96.401,463.912C97.079,463.912 97.917,463.571 98.263,463.154C98.781,462.53 98.326,462.33 95.708,462.032C93.957,461.832 91.778,461.549 90.867,461.402C88.7,461.052 80.077,461.102 79.484,461.469C78.685,461.962 72.373,462.195 72.373,461.731C72.373,461.487 72.745,460.978 73.201,460.6C73.656,460.222 74.029,459.653 74.029,459.336C74.029,459.019 73.865,458.923 73.666,459.123C73.466,459.323 72.969,459.209 72.562,458.871C72.151,458.531 71.821,458.492 71.821,458.784C71.821,459.074 71.448,459.312 70.993,459.312C69.667,459.312 70.03,458.721 71.852,457.914C73.901,457.007 73.608,456.627 70.305,455.907C67.291,455.251 66.717,454.223 68.877,453.352C71.113,452.451 81.618,451.281 87.623,451.264C90.438,451.256 93.4,451.085 94.205,450.883L95.67,450.515L94.097,449.229C93.232,448.521 92.104,447.933 91.59,447.922C90.282,447.894 89.884,447.016 90.586,445.704C91.327,444.319 96.129,441.829 98.059,441.829C98.872,441.829 99.343,441.591 99.149,441.277C98.961,440.973 98.352,440.725 97.795,440.725C96.86,440.725 95.82,439.347 96.025,438.379C96.233,437.395 87.473,438.495 86.74,439.545C86.181,440.347 72.083,442.443 70.697,441.93L69.377,441.442L70.661,440.755C71.367,440.377 75.954,439.399 80.854,438.582C89.821,437.088 92.003,436.032 86.127,436.032C84.322,436.032 82.661,435.717 82.121,435.272C81.354,434.639 80.292,434.622 75.82,435.168C67.595,436.172 62.815,436.862 61.694,437.207C60.952,437.435 60.728,437.271 60.866,436.6C61.067,435.622 62.775,434.474 65.453,433.517C67.758,432.694 66.325,431.968 63.378,432.466C62.1,432.682 59.937,433.034 58.571,433.248L56.086,433.637L58.157,431.653C59.295,430.561 60.227,429.58 60.227,429.471C60.227,429.363 58.686,429.1 56.803,428.887C52.352,428.383 49.969,427.135 50,425.322C50.016,424.366 53.588,423.084 56.911,422.841C58.279,422.741 61.386,422.264 63.815,421.782C66.245,421.299 69.971,420.793 72.097,420.656C74.223,420.519 77.453,420.146 79.274,419.826C90.587,417.84 93.133,417.351 93.621,417.071C93.92,416.899 93.051,416.487 91.688,416.156C90.317,415.822 89.211,415.229 89.211,414.827C89.211,413.898 94.776,411.88 99.826,410.978C102.282,410.539 104.1,409.886 104.695,409.228C105.228,408.64 107.076,407.897 108.904,407.538C113.053,406.721 112.941,405.947 108.433,404.282C107.467,403.924 106.788,403.345 106.925,402.994C107.236,402.195 109.795,400.975 111.161,400.975C111.726,400.975 112.034,400.727 111.847,400.423C111.659,400.119 109.657,399.871 107.397,399.871C103.675,399.871 102.18,399.306 103.979,398.58C105.587,397.931 97.53,398.283 93.551,399.035C88.595,399.972 85.899,399.58 85.899,397.922C85.899,397.158 87.341,396.155 91.318,394.152C95.064,392.266 96.513,391.279 96.01,390.955C95.057,390.339 95.998,389.709 99.701,388.486C104.927,386.76 109.073,383.866 108.529,382.325C108.157,381.272 110.194,380.698 118.61,379.483C122.794,378.879 126.983,378.002 127.92,377.535C128.857,377.068 130.841,376.539 132.329,376.361C136.431,375.869 144.281,373.883 145.508,373.027C146.107,372.609 147.35,372.249 148.269,372.228C149.188,372.207 150.437,371.976 151.044,371.715C151.924,371.337 151.699,371.224 149.94,371.159C145.235,370.986 142.738,370.522 142.114,369.705C141.688,369.147 141.022,368.976 140.181,369.207C139.078,369.51 139.035,369.474 139.875,368.948C140.412,368.611 141.281,368.407 141.807,368.494C142.333,368.58 143.097,368.441 143.506,368.185C143.945,367.91 144.805,368.018 145.61,368.449C146.671,369.017 147.202,369.033 148.016,368.525C148.677,368.112 149.184,368.072 149.395,368.414C149.579,368.711 151.143,368.963 152.871,368.974C154.599,368.985 156.634,369.349 157.393,369.783C159.047,370.728 159.602,370.797 159.602,370.059C159.602,369.755 159.214,369.507 158.741,369.507C158.268,369.507 158.016,369.286 158.183,369.017C158.349,368.748 157.965,368.392 157.329,368.226C156.693,368.059 156.281,367.596 156.413,367.197C156.656,366.459 159.129,366.027 166.779,365.385C173.69,364.806 175.612,364.494 175.612,363.952C175.612,363.667 175.239,363.434 174.784,363.434C174.324,363.434 173.956,362.943 173.956,362.329C173.956,361.52 174.324,361.225 175.336,361.225C176.924,361.225 177.195,360.375 175.729,359.992C175.186,359.85 172.391,359.866 169.518,360.028C161.15,360.501 157.803,360.343 156.053,359.396C155.164,358.915 154.277,358.62 154.082,358.74C153.888,358.86 153.831,358.259 153.957,357.404C154.23,355.539 153.454,355.248 147.785,355.092C144.393,354.999 144.129,354.915 145.308,354.304C147.248,353.299 154.363,351.856 158.606,351.608C160.775,351.481 162.823,351.028 163.56,350.512C165.128,349.413 166.073,349.399 167.134,350.46C167.611,350.937 168.94,351.283 170.269,351.276C174.361,351.255 189.627,349.702 191.7,349.096C193.636,348.53 193.695,348.439 193.286,346.628C193.029,345.487 193.087,344.523 193.433,344.177C193.827,343.783 193.81,343.371 193.379,342.851C192.06,341.262 193.738,340.933 201.795,341.201C208.055,341.409 210.008,341.295 211.278,340.647C212.622,339.962 218.681,339.016 222.815,338.847C223.422,338.822 225.161,338.58 226.68,338.308L229.44,337.815L226.956,337.413C225.589,337.192 221.49,337.138 217.846,337.293C214.203,337.448 208.985,337.542 206.253,337.501C203.52,337.461 198.178,337.832 194.383,338.327C186.873,339.306 179.128,339.99 175.794,339.97C174.631,339.963 173.524,340.174 173.333,340.44C173.142,340.705 172.211,340.953 171.263,340.992C170.315,341.031 169.539,341.268 169.539,341.52C169.539,341.771 168.98,341.82 168.297,341.627C167.325,341.354 167.235,341.404 167.883,341.858C168.597,342.358 168.578,342.439 167.745,342.446C167.214,342.451 166.779,342.731 166.779,343.07C166.779,343.448 166.254,343.342 165.418,342.794C163.907,341.804 163.244,341.648 163.704,342.392C163.87,342.661 163.512,343.01 162.908,343.168C162.28,343.332 161.81,343.182 161.81,342.817C161.81,342.447 160.938,342.178 159.74,342.178C158.424,342.178 157.716,342.42 157.799,342.842C157.888,343.299 157.293,343.425 155.89,343.245C153.592,342.951 151.325,341.664 151.312,340.647C151.306,340.213 151.112,340.267 150.768,340.798C150.353,341.441 150.231,341.278 150.225,340.072C150.214,338.081 151.124,336.382 152.201,336.382C152.663,336.382 152.888,336.133 152.701,335.829C152.513,335.526 152.809,335.258 153.358,335.235C155.177,335.158 156.333,334.824 157.563,334.018C158.666,333.295 161.258,333.573 161.258,334.414C161.258,334.566 160.925,334.563 160.518,334.406C160.111,334.25 159.428,334.554 159,335.082C158.329,335.908 158.33,335.975 159.006,335.568C159.609,335.205 159.7,335.329 159.401,336.108C159.169,336.714 159.298,337.301 159.722,337.571C160.778,338.241 161.667,338.115 160.706,337.431C160.083,336.987 160.403,336.915 161.999,337.137C163.171,337.3 164.57,337.15 165.128,336.802C165.892,336.324 166.334,336.334 166.946,336.842C167.598,337.383 167.837,337.324 168.183,336.533C168.418,335.994 168.571,335.366 168.523,335.139C168.475,334.911 168.788,334.725 169.218,334.725C169.648,334.725 170.095,334.441 170.21,334.093C170.326,333.746 171.15,333.384 172.04,333.289C172.931,333.194 173.938,332.737 174.277,332.273C174.616,331.809 175.095,331.612 175.341,331.835C175.587,332.058 175.633,331.806 175.442,331.274C175.015,330.085 176.071,329.974 176.526,331.16C176.816,331.914 176.972,331.904 177.889,331.074C178.868,330.189 178.926,330.195 178.934,331.189C178.941,332.07 179.029,332.106 179.477,331.412C180.275,330.178 180.161,329.909 178.684,329.538C177.746,329.303 177.364,328.847 177.425,328.038C177.523,326.748 179.446,325.784 181.661,325.915C183.727,326.036 185.55,325.325 185.55,324.399C185.55,323.803 186.099,323.628 187.62,323.739C189.846,323.902 193.589,323.28 194.936,322.525C195.604,322.15 195.551,322.052 194.66,322.017C194.052,321.994 192.313,321.858 190.795,321.716C186.1,321.276 179.856,321.289 177.603,321.745C176.057,322.058 175.561,322.005 175.838,321.558C176.075,321.173 175.926,321.049 175.447,321.233C174.993,321.407 174.26,320.902 173.677,320.013C172.966,318.927 172.873,318.432 173.349,318.273C173.796,318.124 173.688,317.794 173.02,317.27C172.112,316.558 172.171,316.515 173.68,316.777C174.591,316.935 175.026,316.918 174.647,316.739C173.248,316.08 174.018,315.402 176.165,315.402C177.559,315.402 178.376,315.656 178.381,316.092C178.387,316.6 178.515,316.584 178.864,316.033C179.163,315.562 179.468,315.493 179.686,315.846C180.057,316.445 180.76,316.399 182.485,315.66C183.077,315.407 184.378,315.183 185.376,315.163C187.664,315.116 188.407,313.746 186.144,313.746C185.249,313.746 184.426,313.387 184.246,312.917C184.032,312.359 184.273,312.089 184.988,312.089C185.57,312.089 186.246,311.779 186.489,311.399C187.122,310.41 189.372,309.237 189.951,309.595C190.221,309.762 190.598,309.647 190.789,309.338C190.98,309.029 191.822,308.777 192.659,308.777C193.497,308.777 195.532,308.373 197.182,307.88C199.785,307.102 200.019,306.923 198.955,306.524C198.281,306.272 193.672,306.098 188.711,306.14C183.751,306.181 179.368,306.014 178.971,305.769C178.56,305.515 178.087,305.586 177.872,305.934C177.428,306.652 160.266,307.196 159.839,306.506C159.689,306.263 159.181,306.213 158.71,306.393C158.13,306.616 158.053,306.846 158.473,307.105C158.814,307.316 158.338,307.489 157.416,307.489C156.493,307.489 155.738,307.251 155.738,306.961C155.738,306.671 155.359,306.748 154.896,307.132C154.433,307.516 153.878,307.653 153.662,307.438C153.446,307.222 153.887,306.575 154.642,306.001L156.014,304.956L154.633,305.222C153.424,305.454 153.39,305.422 154.357,304.962C155.95,304.206 158.566,304.284 160.1,305.134C161.595,305.963 163.467,305.69 163.467,304.643C163.467,304.161 164.557,303.945 167.055,303.93C169.307,303.918 170.644,304.136 170.644,304.517C170.644,304.85 170.954,304.716 171.334,304.219C171.832,303.565 173.327,303.216 176.717,302.96C179.298,302.765 182.978,302.255 184.894,301.827C186.811,301.398 189.171,301.024 190.139,300.995C191.107,300.965 193.141,300.603 194.659,300.188C197.248,299.481 196.956,299.453 189.967,299.735C185.867,299.901 182.141,300.04 181.685,300.045C181.23,300.05 175.516,300.637 168.988,301.349C162.459,302.06 155.342,302.719 153.171,302.811C151,302.904 149.338,303.166 149.477,303.394C149.616,303.622 148.659,303.809 147.351,303.81C146.043,303.81 142.736,304.173 140.003,304.612C135.317,305.367 124.294,306.145 125.791,305.615C126.172,305.48 126.344,305.143 126.172,304.865C126,304.587 126.558,304.348 127.411,304.334C128.264,304.32 129.831,303.836 130.894,303.26C131.957,302.683 133.323,301.98 133.93,301.697C135.926,300.766 168.488,295.38 176.165,294.71C178.442,294.512 185.026,293.857 190.795,293.256C196.564,292.654 204.179,291.921 207.716,291.626C211.254,291.332 215.344,290.731 216.805,290.291C218.724,289.713 219.567,289.663 219.842,290.108C220.19,290.672 225.999,290.517 233.029,289.757C234.092,289.642 237.446,289.393 240.482,289.203C245.931,288.863 254.232,287.717 258.878,286.665C260.19,286.368 261.496,286.269 261.78,286.444C262.065,286.62 265.911,286.216 270.328,285.547C276.863,284.557 278.594,284.456 279.622,285.007C280.656,285.56 281.98,285.467 286.908,284.496C295.111,282.879 305.815,280.778 311.149,279.736C313.578,279.262 317.107,278.522 318.991,278.091C320.876,277.661 323.236,277.309 324.236,277.311C325.236,277.311 327.173,276.956 328.539,276.519C330.842,275.782 335.557,274.964 348.138,273.118C354.602,272.17 355.904,271.951 362.492,270.705C365.529,270.131 370.497,269.252 373.534,268.751C376.57,268.249 379.8,267.716 380.711,267.566C387.157,266.5 388.385,266.52 389.667,267.71C390.359,268.352 390.924,269.16 390.924,269.504C390.924,269.849 391.111,270.102 391.339,270.066C391.566,270.03 392.32,270.03 393.014,270.066C394.069,270.12 394.185,270.3 393.724,271.163C393.048,272.426 393.589,273.107 394.6,272.267C395.739,271.322 395.479,272.172 394.17,273.678C393.483,274.468 392.103,275.177 390.833,275.391C388.979,275.705 388.768,275.877 389.361,276.592C390.252,277.666 389.5,277.733 424.878,273.452C427.307,273.158 431.654,272.798 434.539,272.653C437.424,272.507 442.641,272.126 446.133,271.807C449.625,271.487 454.221,271.127 456.346,271.007C458.472,270.887 461.193,270.531 462.394,270.216C463.595,269.902 468.358,269.629 472.98,269.61C477.601,269.592 481.712,269.466 482.114,269.33C483.108,268.997 496.045,268.319 499.123,268.439C500.484,268.493 501.978,268.88 502.442,269.3C503.483,270.242 506.133,270.336 518.455,269.871C524.12,269.657 529.322,269.17 531.03,268.695C533.259,268.074 536.956,267.904 546.765,267.971C553.816,268.02 565.548,267.872 572.835,267.643C587.604,267.179 586.814,267.173 602.096,267.837C611.99,268.266 617.698,268.284 626.387,267.913C627.906,267.848 628.713,267.681 628.182,267.542C627.65,267.403 627.216,267.03 627.216,266.713C627.216,266.332 628.765,266.245 631.77,266.457C634.275,266.634 641.79,267.031 648.471,267.338C655.151,267.646 663.722,268.153 667.518,268.464C682.766,269.716 688.582,270.157 696.502,270.662C716.309,271.927 726.75,272.431 737.632,272.647C742.642,272.747 748.853,272.998 751.434,273.205C754.015,273.411 757.866,273.558 759.991,273.531C762.117,273.504 766.34,273.726 769.377,274.025C772.413,274.323 782.247,274.677 791.23,274.811C800.213,274.945 808.659,275.296 810.001,275.592C811.342,275.888 814.391,276.265 816.776,276.429C819.162,276.594 821.895,276.856 822.849,277.012C826.114,277.546 831.21,277.909 838.663,278.139C845.226,278.341 851.603,278.826 861.022,279.84C862.54,280.003 864.652,280.206 865.715,280.291C866.778,280.376 869.51,280.605 871.788,280.8C874.065,280.994 877.916,281.306 880.344,281.492C882.773,281.677 884.885,281.906 885.037,281.999C885.189,282.093 886.727,282.32 888.454,282.503C890.18,282.687 891.957,282.977 892.402,283.147C892.847,283.318 895.409,283.532 898.095,283.622C905.475,283.87 905.465,283.869 905.465,284.761C905.465,285.217 905.728,285.589 906.049,285.589C906.371,285.589 906.455,285.299 906.235,284.944C905.963,284.503 906.142,284.415 906.8,284.668C907.33,284.871 908.311,285.037 908.981,285.037C909.803,285.037 910.226,285.396 910.282,286.142C910.381,287.461 910.082,287.525 908.974,286.418C907.819,285.262 906.526,285.349 906.914,286.556C907.106,287.15 907.046,287.284 906.759,286.905C906.441,286.484 904.886,286.405 901.876,286.657C896.695,287.09 892.784,286.971 885.59,286.161C882.705,285.836 878.979,285.436 877.309,285.273C875.639,285.11 873.982,284.882 873.628,284.766C873.273,284.65 872.839,284.932 872.662,285.392C872.424,286.012 871.9,286.133 870.641,285.856C868.663,285.422 867.392,285.257 862.126,284.75C860.001,284.545 858.113,284.286 857.932,284.175C857.545,283.937 850.16,283.898 840.043,284.08C833.624,284.196 829.098,283.88 825.721,283.08C823.818,282.629 810.507,282.435 810.507,282.857C810.507,283.075 812.184,283.432 814.233,283.651C816.283,283.871 818.457,284.148 819.064,284.268C823.324,285.108 834.733,286.05 843.908,286.319C846.033,286.381 848.035,286.6 848.356,286.806C848.89,287.148 865.795,288.466 866.702,288.236C866.918,288.182 868.958,288.311 871.236,288.523C874.757,288.852 883.748,289.512 886.004,289.609C886.82,289.643 886.916,290.356 886.167,290.819C885.63,291.151 881.468,291.227 877.702,290.975C876.552,290.897 875.409,290.507 875.163,290.108C874.829,289.567 873.88,289.477 871.457,289.755C869.665,289.961 868.033,290.228 867.83,290.349C867.627,290.47 867.083,290.192 866.623,289.731C866.162,289.27 865.654,289.106 865.493,289.366C865.181,289.871 854.038,289.656 850.809,289.083C849.746,288.895 847.873,288.689 846.646,288.627C845.419,288.564 843.866,288.219 843.195,287.86C842.22,287.338 841.975,287.355 841.975,287.944C841.975,288.378 841.237,288.741 840.181,288.826C835.816,289.178 829.706,289.145 824.861,288.742C821.376,288.453 819.889,288.489 820.428,288.85C822.604,290.308 818.522,291.026 812.163,290.305C806.526,289.666 805.518,289.632 803.082,290.002C801.825,290.193 800.062,290.152 799.165,289.911C796.801,289.278 784.511,288.156 779.038,288.074C776.457,288.036 772.731,287.834 770.757,287.626C768.783,287.419 764.808,287.122 761.924,286.966C759.039,286.81 752.207,286.317 746.741,285.871C741.276,285.424 733.146,284.892 728.676,284.688C721.39,284.355 720.511,284.412 720.195,285.236C719.894,286.02 718.934,286.152 713.693,286.132C710.311,286.12 706.425,286.31 705.059,286.557L702.575,287.004L706.715,287.62C708.993,287.959 711.725,288.229 712.788,288.221C713.851,288.212 718.199,288.59 722.45,289.06C726.701,289.53 734.775,290.193 740.392,290.532C746.01,290.871 751.158,291.267 751.834,291.412C752.509,291.558 758.099,291.918 764.256,292.214C775.321,292.745 783.074,293.179 788.976,293.596C790.646,293.714 796.375,294.063 801.707,294.37C807.039,294.678 811.759,295.04 812.196,295.175C812.634,295.31 813.488,295.609 814.095,295.839C814.703,296.068 816.155,296.325 817.322,296.409C818.489,296.494 819.732,296.957 820.084,297.438C820.593,298.133 822.031,298.343 827.071,298.456C830.562,298.535 833.667,298.752 833.97,298.938C834.274,299.125 836.386,299.424 838.663,299.602C849.549,300.454 860.432,301.145 865.439,301.304C868.475,301.4 874.935,301.913 879.793,302.443C884.651,302.973 890.862,303.489 893.595,303.59C912.509,304.288 927.616,305.166 935.553,306.03C938.286,306.328 943.076,306.731 946.198,306.926C949.32,307.121 952.005,307.493 952.165,307.753C952.326,308.013 951.635,308.245 950.63,308.27C949.625,308.295 948.102,308.366 947.245,308.428C946.387,308.49 945.578,308.366 945.446,308.153C945.314,307.939 944.288,308.018 943.166,308.327C942.027,308.642 939.529,308.73 937.512,308.526C935.524,308.326 924.953,308.065 914.022,307.946C903.091,307.827 890.048,307.569 885.038,307.373C876.107,307.024 873.577,307.237 879.435,307.846C881.06,308.015 882.51,308.274 882.657,308.421C883.051,308.814 881.032,309.788 879.357,310.013C877.406,310.274 876.79,310.973 878.459,311.033C879.193,311.06 883.023,311.313 886.97,311.596C890.917,311.879 898.681,312.257 904.223,312.436C913.332,312.731 914.298,312.855 914.298,313.73C914.298,314.945 916.521,315.232 929.915,315.748C935.316,315.956 939.865,316.336 940.023,316.592C940.182,316.849 941.4,317.058 942.73,317.058C947.266,317.058 945.995,318.583 940.423,319.825C938.851,320.175 936.739,320.416 935.73,320.36C929.006,319.988 930.77,321.075 938.314,321.952C941.35,322.306 945.574,322.715 947.699,322.862C949.825,323.009 953.675,323.377 956.256,323.68C958.837,323.983 964.055,324.394 967.85,324.594C972.524,324.841 974.929,325.192 975.303,325.682C975.609,326.083 977.579,326.566 979.72,326.765C981.845,326.962 983.833,327.427 984.137,327.798C984.44,328.169 986.503,328.64 988.721,328.845C990.938,329.05 993.31,329.582 993.99,330.028C994.77,330.539 997.158,330.929 1000.45,331.082C1007.54,331.412 1013.1,332.034 1013.41,332.533C1013.73,333.056 1008.9,333.805 1008.15,333.346C1007.85,333.157 1007.6,333.239 1007.6,333.527C1007.6,333.814 1008.47,334.213 1009.53,334.412C1011.63,334.806 1012.03,335.493 1010.5,336.085C1008.7,336.785 1011.22,337.892 1016.89,338.892C1021.66,339.731 1024.67,340.769 1022.48,340.815C1020.42,340.858 1023.6,341.831 1026.92,342.17C1028.89,342.372 1030.79,342.776 1031.14,343.069C1031.49,343.362 1033.35,343.855 1035.27,344.164C1040.61,345.023 1040.55,345.714 1035.11,346.142C1033.07,346.302 1031.21,346.775 1030.65,347.276C1029.87,347.978 1028.91,348.062 1025.41,347.735C1018.29,347.07 1016.88,347.2 1015.81,348.616C1015.29,349.309 1014.97,350.05 1015.1,350.262C1015.23,350.475 1017.01,350.822 1019.06,351.035C1021.11,351.248 1023.03,351.616 1023.33,351.855C1023.64,352.093 1025.07,352.464 1026.51,352.679C1030.47,353.268 1029.65,354.048 1025.08,354.048C1022.86,354.048 1020.85,354.234 1020.62,354.462C1020.39,354.69 1018.07,354.876 1015.47,354.876C1012.18,354.876 1010.67,355.086 1010.5,355.566C1010.34,356.039 1010.93,356.257 1012.38,356.259C1013.55,356.26 1015.37,356.49 1016.43,356.769C1017.5,357.047 1020.47,357.432 1023.04,357.624C1025.61,357.816 1027.99,358.206 1028.33,358.49C1028.68,358.774 1029.1,358.862 1029.28,358.685C1029.45,358.508 1030.18,358.57 1030.88,358.822C1031.88,359.176 1031.29,359.361 1028.3,359.633C1024.78,359.953 1020.77,360.759 1018.64,361.571C1017.29,362.086 1019.39,362.653 1025.68,363.473C1028.79,363.879 1031.34,364.358 1031.34,364.538C1031.34,364.718 1032.95,364.763 1034.93,364.637C1037.81,364.454 1038.52,364.567 1038.52,365.216C1038.52,366.216 1036.77,367.853 1035.71,367.841C1035.06,367.834 1035.07,367.74 1035.76,367.298C1036.46,366.842 1036.44,366.761 1035.6,366.754C1035.06,366.749 1034.47,367.131 1034.29,367.602C1034.01,368.332 1033.01,368.416 1027.54,368.17C1020.69,367.862 1019.01,368.228 1020.27,369.748C1022.38,372.296 1031,375.027 1036.93,375.027C1040.51,375.027 1042.38,375.696 1042.38,376.979C1042.38,377.62 1041.5,377.785 1038.1,377.774C1035.75,377.767 1032.83,377.499 1031.62,377.179C1030.4,376.86 1024.68,376.485 1018.9,376.348C1008.68,376.105 1008.39,376.128 1008.31,377.208C1008.23,378.269 1008.9,379.034 1010.08,379.226C1010.39,379.275 1012.77,379.717 1015.38,380.208C1023.91,381.816 1031.49,382.796 1039.24,383.293C1046.43,383.754 1048.88,384.387 1048.13,385.588C1047.96,385.862 1047.59,385.94 1047.3,385.76C1047.01,385.581 1046.84,385.763 1046.92,386.165C1047.01,386.57 1046.64,386.863 1046.11,386.821C1045.59,386.779 1045.27,386.938 1045.42,387.174C1045.56,387.411 1044.84,387.762 1043.81,387.955C1041.58,388.373 1041.05,389.368 1042.19,390.998C1042.8,391.866 1042.87,392.383 1042.43,392.906C1041.72,393.763 1042.19,394.35 1043.58,394.35C1044.13,394.35 1044.59,394.454 1044.59,394.581C1044.59,394.708 1044.75,395.241 1044.96,395.767C1045.29,396.644 1044.92,396.692 1040.4,396.355C1037.69,396.154 1034.55,395.842 1033.41,395.661C1031.76,395.4 1031.34,395.509 1031.34,396.194C1031.34,396.668 1030.94,397.279 1030.45,397.553C1029.18,398.261 1029.94,401.442 1031.53,402.081C1032.66,402.538 1032.67,402.565 1031.62,402.635C1030.51,402.709 1030.51,402.709 1031.62,403.183C1032.69,403.646 1031.19,403.844 1025.54,403.982C1023.19,404.039 1021.4,404.782 1021.4,405.705C1021.4,406.198 1020.83,406.498 1019.88,406.503C1019.05,406.508 1017.8,406.662 1017.11,406.847C1015.93,407.162 1015.92,407.229 1016.83,407.926C1017.37,408.334 1018.49,408.677 1019.32,408.686C1020.15,408.696 1022.47,409.573 1024.48,410.636C1026.5,411.708 1028.92,412.568 1029.92,412.568C1033.27,412.568 1038.49,413.271 1038.23,413.687C1038.09,413.914 1038.4,414.066 1038.91,414.024C1039.43,413.983 1039.94,414.377 1040.05,414.9C1040.3,416.115 1037.04,418.209 1035.36,417.913C1034.69,417.795 1034.05,417.969 1033.94,418.3C1033.68,419.081 1027.23,419.302 1024.66,418.618C1023.56,418.328 1017.91,418.023 1012.1,417.94C1002.27,417.801 999.37,418.083 1003.05,418.821C1003.88,418.988 1005.68,419.378 1007.05,419.687C1008.41,419.997 1010.59,420.26 1011.88,420.274C1013.17,420.287 1014.23,420.546 1014.23,420.85C1014.23,421.153 1014.61,421.402 1015.09,421.402C1015.56,421.402 1016.46,421.675 1017.09,422.008C1018.21,422.608 1018.21,422.622 1016.91,423.267C1014.65,424.396 1015.35,425.461 1019.16,426.671C1021.11,427.292 1022.82,428.162 1022.97,428.604C1023.11,429.045 1023.44,429.551 1023.71,429.727C1024.56,430.281 1023.55,431.985 1022.59,431.618C1022.11,431.432 1021.86,431.433 1022.05,431.62C1022.24,431.806 1021.76,432.585 1021,433.35C1019.99,434.357 1018.95,434.767 1017.24,434.833C1015.94,434.883 1014.98,435.087 1015.1,435.286C1015.23,435.484 1012.95,435.525 1010.04,435.376C1005.82,435.16 1004.57,435.273 1003.83,435.943C1002.81,436.872 997.383,437.255 994.554,436.598C993.475,436.347 992.686,436.425 992.452,436.805C992.245,437.139 991.49,437.412 990.774,437.412C989.113,437.412 987.725,437.942 987.725,438.576C987.725,438.847 988.085,439.069 988.525,439.069C988.966,439.069 989.537,439.445 989.794,439.906C990.085,440.425 992.243,441.128 995.481,441.758C1001.86,442.999 1006.56,444.896 1006.11,446.053C1005.94,446.498 1005.45,446.726 1005.01,446.56C1004.58,446.394 1004.37,446.483 1004.54,446.757C1004.71,447.032 1004.2,448.03 1003.4,448.976C1002.33,450.243 1001.66,450.604 1000.84,450.344C1000.23,450.149 999.871,450.216 1000.04,450.495C1000.21,450.771 999.489,451.022 998.433,451.052C997.377,451.082 994.769,451.534 992.638,452.056L988.763,453.006L989.996,454.318C990.675,455.04 991.459,455.631 991.74,455.631C992.021,455.631 993.103,456.036 994.145,456.53C995.962,457.392 996.005,457.482 995.201,458.71C994.672,459.517 994.567,460.117 994.917,460.333C995.222,460.522 995.312,460.934 995.118,461.249C994.889,461.619 994.592,461.556 994.28,461.073C993.967,460.587 993.652,460.522 993.383,460.887C993.156,461.197 992.224,461.81 991.313,462.249L989.657,463.048L991.404,463.236C993.296,463.439 994.307,464.855 992.936,465.382C992.473,465.559 991.956,465.568 991.788,465.4C991.621,465.232 990.656,465.559 989.646,466.127C988.635,466.695 986.864,467.336 985.71,467.553C984.556,467.769 983.277,468.281 982.868,468.69C981.9,469.658 981.521,469.637 976.391,468.325C971.787,467.147 970.489,467.257 968.6,468.984C967.535,469.958 967.105,470.006 964.22,469.472C960.437,468.773 953.308,468.683 953.714,469.34C953.87,469.593 955.81,470.109 958.025,470.486C963.669,471.449 964.304,471.655 963.377,472.228C961.771,473.221 968.964,475.564 975.994,476.339C977.892,476.548 979.566,476.914 979.713,477.152C979.86,477.39 979.459,478.247 978.822,479.057C977.753,480.416 977.732,480.603 978.554,481.511C979.043,482.052 979.443,482.63 979.443,482.796C979.443,483.478 970.095,482.496 967.021,481.491C962.602,480.046 953.654,478.991 952.827,479.818C952.39,480.256 952.386,480.631 952.813,481.146C953.391,481.842 954.276,482.139 961.638,484.112C963.935,484.728 965.089,485.315 965.089,485.868C965.089,486.568 964.438,486.641 960.993,486.329C958.368,486.091 956.77,486.163 956.543,486.529C956.349,486.843 956.495,487.1 956.867,487.1C957.239,487.1 957.415,487.228 957.258,487.385C956.888,487.756 949.069,486.115 948.292,485.504C947.68,485.023 939.618,483.782 937.899,483.903C937.368,483.941 936.933,484.282 936.933,484.662C936.933,485.042 936.804,485.688 936.647,486.097C936.376,486.804 943.118,488.234 954.736,489.933C956.482,490.188 958.81,490.773 959.911,491.233C961.011,491.692 962.688,492.07 963.638,492.072C966.139,492.077 969.73,493.169 969.15,493.75C968.881,494.018 965.519,494.309 961.678,494.395C957.838,494.482 954.737,494.595 954.787,494.647C954.837,494.698 956.106,495.222 957.607,495.812C960.22,496.838 960.282,496.912 959.088,497.551C958.153,498.051 957.154,498.07 955.089,497.627C951.729,496.907 951.287,496.897 951.287,497.545C951.287,497.825 952.029,498.217 952.937,498.416C955.955,499.079 955.301,499.798 951.68,499.798C949.573,499.798 947.442,500.148 946.407,500.664C945.36,501.187 944.185,501.377 943.448,501.143C941.873,500.643 915.952,500.452 916.255,500.943C916.897,501.982 909.655,501.977 903.475,500.933C890.96,498.82 880.312,497.619 873.443,497.546C869.648,497.505 863.934,497.131 860.746,496.714C857.557,496.296 851.877,495.699 848.123,495.386C844.37,495.073 841.14,494.721 840.946,494.604C840.753,494.487 838.731,494.233 836.454,494.039C834.177,493.845 831.444,493.582 830.381,493.453C828.169,493.186 818.096,492.624 810.782,492.361C805.491,492.17 797.452,491.662 792.011,491.175C790.189,491.012 783.109,490.772 776.277,490.643C769.445,490.513 761.371,490.204 758.334,489.955C755.298,489.706 746.9,489.527 739.673,489.557C728.742,489.603 726.443,489.749 726.009,490.426C725.565,491.116 725.41,491.123 724.989,490.469C724.659,489.956 723.948,489.808 722.861,490.025C721.962,490.205 720.959,490.081 720.626,489.747C720.293,489.415 719.201,489.091 718.199,489.027C717.196,488.963 715.879,488.763 715.272,488.583C711.963,487.604 708.516,487.319 707.127,487.91C706.013,488.385 703.23,487.824 703.615,487.202C703.756,486.973 701.096,486.719 697.702,486.637C688.564,486.417 687.617,486.317 686.583,485.459C685.742,484.761 685.658,484.793 685.824,485.749C685.951,486.477 685.745,486.76 685.183,486.627C684.728,486.519 683.796,486.426 683.113,486.42C682.43,486.414 681.871,486.218 681.871,485.985C681.871,485.752 681.471,485.407 680.981,485.22C680.335,484.972 680.182,485.115 680.423,485.741C680.651,486.336 680.542,486.469 680.07,486.17C679.694,485.931 677.026,485.657 674.142,485.562C668.075,485.361 668.977,485.364 640.465,485.465C628.471,485.507 617.122,485.362 615.244,485.143C613.367,484.923 611.413,484.904 610.902,485.1C609.963,485.461 591.928,486.173 586.387,486.068C582.053,485.986 577.139,488.534 579.872,489.445C580.28,489.581 579.998,489.971 579.182,490.402C578.424,490.802 577.666,491.338 577.497,491.595C576.888,492.521 572.2,493.038 570.869,492.326C570.03,491.877 567.807,491.715 564.311,491.85C561.403,491.962 551.849,492.185 543.081,492.345C534.313,492.505 526.536,492.787 525.799,492.973C525.061,493.158 521.927,493.347 518.834,493.393C515.741,493.44 512.713,493.757 512.106,494.099C511.019,494.709 505.899,495.712 505.042,495.481C503.986,495.198 502.024,495.269 500.236,495.656C499.173,495.886 497.807,496.033 497.2,495.982C496.592,495.931 495.599,495.845 494.991,495.792C494.384,495.738 491.527,495.986 488.642,496.343C485.758,496.699 482.323,496.986 481.011,496.98C479.698,496.974 478.332,497.203 477.974,497.491C477.617,497.778 476.517,498.186 475.53,498.397C474.062,498.711 473.736,498.611 473.736,497.846C473.736,497.018 473.279,496.956 469.733,497.303C467.532,497.517 461.756,497.75 456.898,497.82C452.039,497.89 446.726,498.24 445.09,498.596C443.455,498.953 441.996,499.245 441.848,499.245C441.701,499.245 441.889,499.617 442.267,500.073C442.645,500.528 443.794,500.901 444.819,500.901C445.845,500.901 446.684,501.005 446.684,501.132C446.684,501.259 446.835,501.756 447.019,502.236C447.479,503.434 445.924,503.375 444.698,502.148C444.003,501.453 443.673,501.377 443.507,501.875C443.381,502.254 443.05,502.424 442.772,502.252C442.495,502.08 442.267,502.141 442.267,502.387C442.267,502.632 441.708,502.864 441.025,502.901C440.342,502.938 436.553,503.25 432.606,503.594C428.659,503.937 420.709,504.318 414.939,504.44C409.17,504.561 403.829,504.797 403.07,504.963C400.498,505.527 386.356,506.836 378.778,507.21C364.736,507.905 354.09,509.913 351.895,512.282C351.209,513.023 349.999,513.621 349.13,513.649C341.986,513.881 332.065,514.625 327.71,515.255C325.889,515.519 322.693,515.887 320.608,516.073C318.524,516.26 315.571,516.649 314.046,516.938C312.521,517.227 311.183,517.463 311.073,517.463C310.962,517.463 310.872,516.828 310.872,516.051L310.872,516.052ZM310.872,511.028C310.872,510.424 310.628,510.379 309.789,510.828C309.141,511.175 308.834,511.744 309.025,512.242C309.271,512.885 309.52,512.931 310.108,512.442C310.528,512.094 310.872,511.457 310.872,511.028ZM403.898,502.817C406.058,502.042 406.003,502.031 401.414,502.3C390.903,502.917 387.612,503.229 387.612,503.609C387.612,504.33 401.575,503.65 403.898,502.817ZM147.456,496.15C147.456,496.031 147.083,495.933 146.628,495.933C146.172,495.933 145.8,496.174 145.8,496.468C145.8,496.762 146.172,496.86 146.628,496.685C147.083,496.51 147.456,496.27 147.456,496.15ZM187.482,494.277C187.675,493.965 187.222,493.725 186.443,493.725C185.684,493.725 184.909,493.973 184.721,494.277C184.529,494.589 184.981,494.829 185.76,494.829C186.52,494.829 187.294,494.581 187.482,494.277ZM161.258,491.452C161.258,490.883 160.597,490.829 159.371,491.3C157.985,491.831 158.357,492.494 159.878,492.204C160.637,492.059 161.258,491.72 161.258,491.452ZM473.646,491.362C475.53,490.838 475.788,490.636 474.86,490.416C473.387,490.067 455.822,490.805 446.408,491.611C443.85,491.83 463.605,492.365 467.663,492.187C469.637,492.1 472.329,491.729 473.646,491.362ZM492.783,489.663C493.39,489.52 492.272,489.422 490.299,489.447C485.588,489.506 483.723,490.013 486.71,490.423C487.925,490.59 489.54,490.546 490.299,490.325C491.058,490.105 492.176,489.807 492.783,489.663L492.783,489.663ZM140.462,489.825C141.599,489.792 141.591,489.763 140.315,489.253C138.81,488.652 137.518,488.952 137.518,489.902C137.518,490.248 137.911,490.38 138.392,490.196C138.872,490.011 139.804,489.845 140.462,489.825ZM501.077,489.204C501.224,489.056 500.242,488.894 498.893,488.843C497.544,488.792 496.269,489.028 496.059,489.367C495.791,489.801 496.44,489.908 498.243,489.728C499.654,489.588 500.929,489.352 501.077,489.204ZM932.792,482.683C933.004,482.341 932.123,482.156 930.479,482.197C928.122,482.255 928.01,482.309 929.48,482.683C931.896,483.298 932.413,483.298 932.792,482.683ZM81.862,474.577C81.463,474.418 80.987,474.437 80.804,474.621C80.62,474.804 80.946,474.935 81.528,474.911C82.171,474.884 82.302,474.753 81.862,474.577L81.862,474.577ZM88.383,473.85C89.493,473.495 89.547,473.405 88.659,473.392C88.052,473.383 87.058,473.589 86.451,473.85C85.044,474.455 86.495,474.455 88.383,473.85ZM95.791,474.067C96.271,473.883 96.664,473.285 96.664,472.739C96.664,471.894 96.317,471.79 94.318,472.04C91.781,472.357 90.126,473.298 92.105,473.298C92.755,473.298 93.44,473.546 93.628,473.85C94.021,474.485 94.56,474.54 95.791,474.067ZM992.693,464.465C992.693,464.161 992.259,463.916 991.727,463.921C990.902,463.928 990.881,464.007 991.589,464.465C992.631,465.138 992.693,465.138 992.693,464.465ZM109.466,442.004C109.067,441.845 108.591,441.864 108.408,442.048C108.224,442.231 108.55,442.362 109.132,442.338C109.775,442.311 109.906,442.18 109.466,442.004L109.466,442.004ZM104.946,440.393C104.946,439.494 103.41,439.392 101.393,440.159C99.197,440.994 99.718,441.582 102.461,441.364C104.128,441.231 104.946,440.912 104.946,440.393ZM115.2,440.792C114.649,439.9 112.675,439.672 112.675,440.501C112.675,440.966 113.242,441.277 114.088,441.277C114.865,441.277 115.365,441.059 115.2,440.792ZM111.018,440.173C111.634,439.775 111.316,439.636 109.776,439.629C108.638,439.624 107.706,439.869 107.706,440.173C107.706,440.876 109.93,440.876 111.018,440.173ZM1031.34,375.579C1031.34,375.276 1031.09,375.027 1030.79,375.027C1030.48,375.027 1030.24,375.276 1030.24,375.579C1030.24,375.883 1030.48,376.132 1030.79,376.132C1031.09,376.132 1031.34,375.883 1031.34,375.579ZM1035.34,365.276C1034.96,365.123 1034.34,365.123 1033.96,365.276C1033.58,365.429 1033.89,365.555 1034.65,365.555C1035.41,365.555 1035.72,365.429 1035.34,365.276ZM1027.06,358.627C1026.38,358.496 1025.26,358.496 1024.58,358.627C1023.89,358.759 1024.45,358.867 1025.82,358.867C1027.18,358.867 1027.74,358.759 1027.06,358.627ZM1001.53,354.171C1001.53,353.934 999.477,353.446 996.972,353.086C994.467,352.726 991.819,352.259 991.089,352.049C990.264,351.811 989.888,351.873 990.098,352.212C990.284,352.513 992.62,353.075 995.291,353.461C997.961,353.847 1000.39,354.242 1000.7,354.338C1001,354.434 1001.31,354.533 1001.39,354.557C1001.47,354.581 1001.53,354.407 1001.53,354.171ZM196.315,349.08C197.301,348.656 197.26,348.601 195.934,348.566C195.117,348.545 194.294,348.776 194.107,349.08C193.699,349.739 194.781,349.739 196.315,349.08ZM997.662,345.845C997.662,345.584 995.169,345.087 992.121,344.741C985.258,343.96 984.025,343.945 984.727,344.646C985.021,344.941 987.99,345.403 991.324,345.673C994.658,345.944 997.448,346.2 997.524,346.242C997.6,346.284 997.662,346.106 997.662,345.845L997.662,345.845ZM165.342,339.234C165.498,338.981 165.264,338.774 164.822,338.774C164.38,338.774 164.018,338.981 164.018,339.234C164.018,339.487 164.252,339.694 164.538,339.694C164.824,339.694 165.185,339.487 165.342,339.234ZM239.205,338.213C238.806,338.053 238.33,338.073 238.147,338.256C237.963,338.44 238.289,338.57 238.871,338.546C239.515,338.52 239.645,338.389 239.205,338.213L239.205,338.213ZM153.529,337.486C153.529,337.182 153.094,336.938 152.563,336.942C151.737,336.949 151.717,337.028 152.425,337.486C153.467,338.159 153.529,338.159 153.529,337.486ZM155.737,336.625C155.737,336.491 155.489,336.382 155.185,336.382C154.881,336.382 154.633,336.645 154.633,336.966C154.633,337.288 154.881,337.397 155.185,337.21C155.489,337.022 155.737,336.759 155.737,336.625ZM187.206,332.781C187.965,332.569 190.325,332.188 192.451,331.935C194.576,331.681 197.185,331.211 198.247,330.89C199.31,330.569 200.18,330.327 200.18,330.353C200.18,330.564 203.961,329.383 205.839,328.585C208.687,327.374 208.867,326.444 206.253,326.444C204.903,326.444 204.32,326.194 204.32,325.616C204.32,324.767 206.791,324.431 210.893,324.723C212.68,324.85 217.778,323.899 218.945,323.22C219.817,322.714 217.031,322.142 213.396,322.083C211.032,322.043 209.017,322.432 206.529,323.408C204.592,324.167 202.495,324.792 201.869,324.796C200.963,324.803 200.895,324.908 201.534,325.312C201.975,325.591 202.534,325.697 202.776,325.547C203.018,325.397 203.216,325.51 203.216,325.797C203.216,326.291 202.008,326.64 197.791,327.364C196.781,327.537 195.82,328.029 195.656,328.456C195.412,329.091 195.2,329.104 194.491,328.529C193.765,327.939 193.677,327.966 193.949,328.694C194.187,329.331 193.955,329.539 193.086,329.472C192.433,329.421 191.074,329.605 190.067,329.881C188.796,330.228 187.992,330.18 187.444,329.725C187,329.356 186.654,329.308 186.654,329.614C186.654,330.223 182.447,331.965 180.976,331.965C180.455,331.965 180.029,332.305 180.029,332.72C180.029,333.282 180.769,333.435 182.927,333.321C184.521,333.236 186.447,332.993 187.206,332.781L187.206,332.781ZM209.917,312.759C209.518,312.626 208.93,312.78 208.609,313.101C208.199,313.511 208.415,313.583 209.333,313.343C210.08,313.147 210.33,312.897 209.917,312.759ZM876.755,310.572C876.755,310.344 876,310.105 875.079,310.04C874.12,309.973 873.544,310.15 873.732,310.454C874.117,311.077 876.757,311.18 876.755,310.572ZM211.497,307.094L212.878,307.051L211.59,306.535C210.135,305.952 207.633,306.401 207.633,307.246C207.633,307.553 208.188,307.653 208.875,307.469C209.558,307.286 210.738,307.117 211.497,307.094L211.497,307.094ZM872.339,307.213C872.339,306.96 871.967,306.753 871.511,306.753C871.056,306.753 870.683,306.96 870.683,307.213C870.683,307.466 871.056,307.673 871.511,307.673C871.967,307.673 872.339,307.466 872.339,307.213ZM874.651,307.296C874.253,307.137 873.777,307.156 873.593,307.34C873.41,307.523 873.736,307.654 874.318,307.63C874.961,307.603 875.092,307.472 874.651,307.296L874.651,307.296ZM220.986,306.192C220.588,306.033 220.112,306.052 219.928,306.236C219.745,306.419 220.071,306.55 220.653,306.526C221.296,306.499 221.427,306.368 220.986,306.192L220.986,306.192ZM159.05,305.465C159.05,305.161 158.801,304.913 158.498,304.913C158.194,304.913 157.945,305.161 157.945,305.465C157.945,305.769 158.194,306.017 158.498,306.017C158.801,306.017 159.05,305.769 159.05,305.465ZM173.404,304.017C173.404,303.399 172.367,303.941 172.07,304.715C171.779,305.473 171.86,305.507 172.563,304.923C173.025,304.54 173.404,304.132 173.404,304.017ZM178.925,304.085C178.925,303.629 178.827,303.257 178.708,303.257C178.588,303.257 178.348,303.629 178.173,304.085C177.998,304.54 178.096,304.913 178.39,304.913C178.684,304.913 178.925,304.54 178.925,304.085ZM901.703,285.213C901.305,285.053 900.829,285.073 900.645,285.256C900.462,285.44 900.788,285.57 901.37,285.546C902.013,285.52 902.144,285.389 901.703,285.213L901.703,285.213ZM393.385,274.034C393.56,273.752 393.476,273.381 393.199,273.21C392.922,273.038 392.554,273.27 392.379,273.723C392.036,274.618 392.866,274.874 393.385,274.034ZM131.336,510.977C131.018,510.598 130.975,510.28 131.24,510.271C131.505,510.262 131.257,509.984 130.689,509.654C129.233,508.808 130.523,508.082 133.378,508.142C134.869,508.174 135.227,508.306 134.482,508.548C133.43,508.89 132.646,510.296 133.516,510.28C135.137,510.25 136.308,509.529 136.055,508.715C135.808,507.92 135.874,507.927 136.568,508.769C137.511,509.914 141.712,510.124 142.075,509.045C142.26,508.497 142.484,508.501 143.166,509.063C144.241,509.95 144.875,512.105 143.962,511.768C143.606,511.637 143.396,511.195 143.494,510.786C143.619,510.266 143.366,510.32 142.651,510.967C141.835,511.705 140.651,511.869 136.772,511.78C133.687,511.709 131.703,511.416 131.336,510.978L131.336,510.977ZM123.757,509.761C123.022,509.306 123.376,508.079 124.242,508.079C124.872,508.079 125.425,509.638 124.908,509.957C124.679,510.099 124.161,510.01 123.757,509.761ZM135.438,505.319C134.828,504.341 134.891,504.205 135.996,504.13C136.681,504.084 137.615,504.006 138.07,503.956C139.543,503.796 139.82,504.3 138.849,505.373C137.622,506.729 136.306,506.708 135.438,505.319L135.438,505.319ZM469.872,501.211C469.872,501.077 470.12,500.814 470.424,500.626C470.727,500.438 470.976,500.548 470.976,500.869C470.976,501.191 470.727,501.454 470.424,501.454C470.12,501.454 469.872,501.344 469.872,501.211ZM476.349,500.833C476.724,500.456 477.169,500.287 477.339,500.456C477.509,500.626 477.203,500.935 476.659,501.142C475.872,501.442 475.808,501.379 476.349,500.833ZM180.029,499.313C180.029,499.047 180.412,498.511 180.88,498.122C181.542,497.573 181.879,497.563 182.394,498.078C182.909,498.592 182.873,498.855 182.232,499.26C181.191,499.918 180.029,499.946 180.029,499.313L180.029,499.313ZM803.329,494.277C803.329,493.973 803.687,493.725 804.125,493.725C804.562,493.725 805.074,493.973 805.261,494.277C805.449,494.581 805.091,494.829 804.466,494.829C803.841,494.829 803.329,494.581 803.329,494.277ZM793.944,493.691C793.944,493.062 795.427,492.998 795.805,493.61C795.954,493.851 795.596,494.084 795.01,494.128C794.423,494.172 793.944,493.975 793.944,493.691ZM246.441,492.8C245.944,491.505 246.701,491.315 248.609,492.256C249.605,492.746 250.171,493.185 249.867,493.231C247.54,493.581 246.7,493.475 246.441,492.8ZM723.829,491.517C723.829,491.213 723.939,490.964 724.073,490.964C724.207,490.964 724.47,491.213 724.658,491.517C724.845,491.82 724.736,492.069 724.414,492.069C724.093,492.069 723.829,491.82 723.829,491.517ZM715.87,491.039C715.632,490.654 715.587,490.19 715.769,490.008C716.263,489.514 716.802,490.24 716.535,491.041C716.348,491.602 716.218,491.601 715.87,491.038L715.87,491.039ZM717.895,491.151C716.764,490.695 717.112,489.94 718.309,490.252C718.916,490.411 719.413,490.761 719.413,491.029C719.413,491.555 718.982,491.59 717.895,491.151ZM982.572,488.388C981.937,487.753 982.17,487.1 983.032,487.1C983.487,487.1 983.86,487.473 983.86,487.928C983.86,488.79 983.207,489.023 982.572,488.388ZM297.417,485.006C297.268,484.766 297.632,484.532 298.224,484.487C298.817,484.443 299.158,484.64 298.982,484.925C298.591,485.558 297.784,485.6 297.417,485.006ZM302.393,484.058C302.567,483.605 303.117,483.216 303.616,483.193C304.115,483.169 305.641,483.038 307.008,482.902C308.799,482.722 309.261,482.809 308.664,483.212C307.981,483.673 307.973,483.772 308.618,483.779C309.048,483.784 309.245,483.942 309.056,484.131C308.867,484.321 307.219,484.567 305.395,484.678C302.631,484.847 302.13,484.743 302.393,484.058ZM77.089,482.721C76.681,482.061 77.719,481.406 78.455,481.861C79.072,482.242 78.667,483.235 77.894,483.235C77.626,483.235 77.264,483.004 77.089,482.721ZM82.31,468.362C82.31,468.076 82.556,467.69 82.856,467.505C83.169,467.311 83.261,467.533 83.073,468.024C82.706,468.981 82.31,469.156 82.31,468.362ZM86.359,468.077C86.359,467.635 86.57,467.404 86.828,467.563C87.086,467.723 87.154,468.085 86.979,468.367C86.533,469.09 86.359,469.008 86.359,468.077ZM1048.45,396.006C1048,395.712 1047.87,395.471 1048.18,395.471C1048.48,395.471 1049.1,395.712 1049.56,396.006C1050.01,396.301 1050.14,396.542 1049.83,396.542C1049.53,396.542 1048.91,396.301 1048.45,396.006ZM141.383,355.035C141.383,354.796 141.88,354.6 142.487,354.6C143.094,354.6 143.591,354.833 143.591,355.118C143.591,355.403 143.094,355.598 142.487,355.553C141.88,355.507 141.383,355.274 141.383,355.035ZM164.502,346.927L163.208,345.879L166.511,345.44C168.329,345.199 171.119,344.987 172.713,344.97C174.307,344.953 175.611,344.77 175.611,344.563C175.612,344.133 178.9,344.99 179.414,345.553C179.6,345.758 178.986,345.78 178.05,345.602C177.001,345.403 175.728,345.606 174.737,346.13C173.852,346.597 171.823,347.004 170.229,347.034C168.635,347.063 167.331,347.287 167.331,347.531C167.331,348.323 165.83,348.002 164.502,346.927L164.502,346.927ZM157.543,347.09C157.726,346.906 158.202,346.887 158.601,347.046C159.041,347.222 158.911,347.353 158.267,347.38C157.686,347.404 157.359,347.273 157.543,347.09L157.543,347.09ZM147.499,339.464C147.476,338.882 147.606,338.556 147.789,338.739C147.973,338.923 147.993,339.399 147.833,339.798C147.657,340.238 147.526,340.107 147.499,339.464L147.499,339.464ZM162.577,334.824C162.731,334.574 162.349,333.935 161.728,333.403C160.616,332.451 160.653,332.41 164.014,330.82C168.062,328.905 168.435,328.862 168.435,330.309C168.435,330.989 168.064,331.416 167.469,331.421C166.686,331.428 166.651,331.523 167.284,331.924C167.713,332.196 168.521,332.331 169.078,332.223C169.635,332.116 170.091,332.281 170.091,332.591C170.091,332.9 169.284,333.109 168.297,333.055C167.31,333.001 166.006,332.986 165.399,333.022C164.479,333.075 164.433,333.175 165.123,333.621C165.83,334.079 165.81,334.158 164.984,334.165C164.453,334.17 164.018,334.422 164.018,334.725C164.018,335.029 163.631,335.277 163.158,335.277C162.684,335.277 162.423,335.073 162.577,334.824L162.577,334.824ZM169.636,330.369C169.081,330.026 169.103,329.795 169.74,329.267C170.633,328.526 171.345,329.173 170.73,330.168C170.511,330.522 170.029,330.611 169.636,330.369ZM150.492,307.121C150.305,306.818 150.524,306.569 150.979,306.569C151.435,306.569 151.961,306.818 152.149,307.121C152.336,307.425 152.117,307.673 151.662,307.673C151.206,307.673 150.68,307.425 150.492,307.121ZM161.8,304.649C162.595,303.691 162.914,303.592 162.914,304.302C162.914,304.573 162.506,304.951 162.008,305.142C161.25,305.433 161.216,305.352 161.8,304.649ZM942.057,295.74C942.704,295.093 946.239,294.586 946.952,295.038C947.363,295.298 947.45,295.539 947.147,295.574C944.175,295.914 941.805,295.992 942.057,295.74ZM938.706,295.059C938.247,294.768 938.59,294.607 939.672,294.607C940.595,294.607 941.35,294.814 941.35,295.067C941.35,295.655 939.636,295.65 938.706,295.058L938.706,295.059ZM924.511,294.354C922.148,293.825 916.41,293.446 905.69,293.109C902.019,292.994 898.484,292.616 897.835,292.268C897.128,291.89 894.655,291.698 891.674,291.789C888.935,291.873 886.694,291.885 886.694,291.816C886.694,291.624 889.906,290.006 890.287,290.006C890.472,290.006 890.47,290.255 890.282,290.558C890.083,290.88 890.645,291.11 891.63,291.11C892.559,291.11 893.319,290.862 893.319,290.558C893.319,290.255 893.582,290.006 893.903,290.006C894.225,290.006 894.302,290.317 894.073,290.696C893.767,291.207 893.866,291.241 894.455,290.827C894.893,290.52 895.748,290.297 896.355,290.332C896.962,290.366 898.778,290.432 900.39,290.477C902.002,290.522 903.206,290.745 903.065,290.972C902.924,291.2 904.338,291.35 906.207,291.306C908.076,291.261 910.04,291.456 910.571,291.739C911.216,292.082 911.537,292.053 911.537,291.649C911.537,291.317 911.838,291.231 912.205,291.458C912.572,291.685 914.994,291.938 917.588,292.021C920.181,292.104 922.303,292.201 922.303,292.237C922.303,292.273 923.545,292.383 925.063,292.481C926.582,292.58 927.886,292.715 927.962,292.782C928.091,292.897 928.66,293.064 929.618,293.269C930.057,293.363 927.466,294.967 926.996,294.892C926.844,294.868 925.726,294.626 924.511,294.354L924.511,294.354ZM902.152,291.594C902.152,291.328 901.67,291.111 901.08,291.111C900.491,291.111 899.874,291.328 899.71,291.594C899.546,291.86 900.028,292.077 900.782,292.077C901.535,292.077 902.152,291.86 902.152,291.594ZM931.683,289.998C931.492,289.689 931.105,289.579 930.822,289.754C930.539,289.929 930.308,289.823 930.308,289.52C930.308,288.451 931.199,288.434 931.858,289.49C932.225,290.078 932.414,290.559 932.278,290.559C932.141,290.559 931.873,290.306 931.683,289.998L931.683,289.998ZM919.864,287.844C919.283,287.262 918.691,286.901 918.55,287.042C918.41,287.183 917.085,287.381 915.606,287.483C913.045,287.66 909.869,286.522 910.674,285.717C911.319,285.072 915.131,285.223 915.964,285.926C916.817,286.646 918.37,286.67 919.066,285.974C919.652,285.388 922.468,285.516 922.858,286.147C923.388,287.005 922.6,288.902 921.714,288.902C921.279,288.902 920.446,288.426 919.864,287.844L919.864,287.844ZM925.563,288.265C925.327,287.885 925.41,287.777 925.768,287.998C926.098,288.202 926.523,288.116 926.714,287.807C927.228,286.975 927.916,287.128 927.916,288.074C927.916,289.047 926.135,289.191 925.563,288.265ZM280.105,284.152C280.289,283.969 280.765,283.949 281.163,284.109C281.604,284.285 281.473,284.416 280.83,284.442C280.248,284.466 279.922,284.336 280.105,284.152L280.105,284.152ZM391.476,268.475C391.476,268.172 391.586,267.923 391.72,267.923C391.853,267.923 392.117,268.172 392.304,268.475C392.492,268.779 392.382,269.028 392.061,269.028C391.739,269.028 391.476,268.779 391.476,268.475ZM404.35,268.531C403.458,267.877 403.672,266.936 404.653,267.192C405.279,267.356 405.68,267.131 405.738,266.584C405.789,266.106 405.872,265.342 405.922,264.887C405.973,264.431 406.47,264.028 407.026,263.99C407.583,263.952 408.225,263.87 408.453,263.807C408.68,263.744 409.612,263.492 410.523,263.248C412.549,262.703 413.649,261.89 413.245,261.236C413.078,260.967 413.433,260.746 414.033,260.746C414.633,260.746 415.25,261.057 415.404,261.436C415.598,261.916 415.823,261.946 416.14,261.534C416.95,260.482 418.641,260.153 419.532,260.875C420.248,261.454 420.315,261.44 419.924,260.791C419.565,260.195 419.683,260.096 420.415,260.376C420.945,260.58 421.714,260.746 422.125,260.746C422.535,260.746 423.02,261.218 423.203,261.794C423.417,262.467 423.89,262.748 424.528,262.582C425.937,262.213 425.792,260.848 424.371,261.109C423.248,261.316 423.247,261.308 424.325,260.796C424.932,260.508 426.27,260.254 427.298,260.233C428.326,260.212 430.686,259.951 432.543,259.653C437.355,258.881 449.453,257.528 454.966,257.146C457.546,256.967 460.776,256.722 462.143,256.602C465.021,256.348 470.704,255.944 478.153,255.464C481.038,255.278 485.013,254.989 486.986,254.822C491.73,254.42 499.197,254.39 500.236,254.769C500.692,254.935 502.12,255.262 503.411,255.495C504.701,255.728 505.757,256.102 505.757,256.325C505.757,256.549 505.143,257.346 504.392,258.096C503.281,259.207 502.511,259.451 500.249,259.407C498.597,259.374 497.547,259.579 497.657,259.911C497.76,260.219 499.756,260.491 502.094,260.516C505.766,260.555 508.211,261.269 507.376,262.059C507.003,262.412 499.684,262.761 499.685,262.425C499.686,262.261 498.009,262.204 495.959,262.299C493.909,262.394 490.806,262.246 489.064,261.97C487.322,261.694 485.779,261.586 485.635,261.73C485.491,261.874 484.307,262.044 483.005,262.108C481.703,262.172 479.951,262.417 479.112,262.651C478.205,262.905 477.302,262.842 476.885,262.496C476.5,262.176 473.782,261.857 470.846,261.787C467.212,261.7 465.622,261.469 465.864,261.065C466.059,260.738 465.797,260.813 465.282,261.231C464.637,261.754 463.644,261.879 462.099,261.632C460.624,261.396 459.973,261.467 460.202,261.838C460.593,262.47 460.52,262.482 455.518,262.617C453.544,262.67 451.37,262.908 450.687,263.147C450.004,263.386 449.445,263.378 449.445,263.13C449.445,262.882 448.824,262.679 448.064,262.679C447.305,262.679 446.684,262.865 446.684,263.093C446.684,263.321 446.297,263.507 445.824,263.507C445.35,263.507 445.093,263.297 445.251,263.041C445.634,262.421 439.963,263.331 439.551,263.956C438.798,265.099 428.466,266.258 428.466,265.199C428.466,264.876 428.202,264.611 427.881,264.611C427.559,264.611 427.439,264.842 427.614,265.125C428.113,265.933 426.843,266.431 426.021,265.749C425.47,265.291 425.211,265.319 425.004,265.859C424.826,266.324 423.917,266.537 422.456,266.455C421.206,266.385 420.184,266.56 420.184,266.844C420.184,267.757 417.348,267.157 416.797,266.128C416.504,265.58 416.024,265.281 415.731,265.462C415.438,265.643 415.324,265.997 415.479,266.248C415.635,266.499 415.398,266.843 414.954,267.014C414.51,267.184 413.998,267.082 413.815,266.787C413.613,266.459 412.906,266.572 412.003,267.075C410.305,268.021 405.023,269.026 404.35,268.532L404.35,268.531ZM396.445,266.024C396.445,265.054 396.776,264.911 397.249,265.677C397.424,265.96 397.314,266.347 397.006,266.538C396.697,266.728 396.445,266.498 396.445,266.024ZM398.525,265.07C398.846,264.749 399.435,264.595 399.833,264.728C400.246,264.866 399.996,265.116 399.249,265.311C398.331,265.552 398.116,265.48 398.525,265.07ZM588.707,263.669C588.024,263.538 587.465,263.24 587.465,263.009C587.465,262.333 589.865,262.7 590.102,263.412C590.221,263.768 590.235,264.025 590.133,263.984C590.032,263.942 589.39,263.801 588.707,263.669L588.707,263.669ZM577.252,262.403C578.769,261.75 579.641,261.75 578.632,262.403C578.176,262.697 577.431,262.924 576.976,262.907C576.43,262.887 576.524,262.715 577.252,262.403ZM580.596,262.454C580.426,262.179 580.784,262.083 581.391,262.242C582.681,262.579 582.844,262.955 581.701,262.955C581.263,262.955 580.766,262.729 580.596,262.454ZM509.523,261.205C508.654,260.331 509.049,260.271 515.872,260.229C519.874,260.205 523.701,260.079 524.378,259.948C525.055,259.817 525.738,259.918 525.895,260.173C526.053,260.428 526.942,260.584 527.871,260.519C530.383,260.346 530.395,261.149 527.884,261.389C526.696,261.502 525.843,261.404 525.987,261.17C526.44,260.437 525.59,260.709 524.725,261.574C523.786,262.514 521.454,262.683 520.938,261.849C520.711,261.481 520.233,261.49 519.514,261.874C518.292,262.528 517.141,262.084 517.703,261.175C517.949,260.777 517.813,260.739 517.298,261.062C516.872,261.33 515.156,261.681 513.486,261.842C511.096,262.073 510.252,261.938 509.523,261.205L509.523,261.205ZM553.788,261.85C553.788,261.547 553.898,261.298 554.032,261.298C554.166,261.298 554.429,261.547 554.616,261.85C554.804,262.154 554.694,262.402 554.373,262.402C554.051,262.402 553.788,262.154 553.788,261.85ZM531.705,260.746C531.207,260.425 531.139,260.208 531.534,260.203C531.896,260.198 532.345,260.443 532.533,260.746C532.957,261.432 532.766,261.432 531.705,260.746ZM747.339,260.671C747.625,260.209 745.522,259.665 745.096,260.091C744.502,260.685 742.048,260.797 742.048,260.23C742.048,259.88 740.477,259.795 737.77,260C734.45,260.252 733.058,260.122 731.559,259.423C730.496,258.927 730.045,258.636 730.557,258.775C731.069,258.914 731.565,258.812 731.661,258.548C731.756,258.284 732.207,257.988 732.663,257.889C733.118,257.791 733.673,257.461 733.896,257.158C734.12,256.854 734.306,257.15 734.311,257.815C734.319,258.958 734.402,258.981 735.837,258.231C737.199,257.52 737.434,257.537 738.12,258.402C738.847,259.319 738.868,259.319 738.551,258.402C738.294,257.656 738.523,257.436 739.554,257.436C740.288,257.436 741.142,257.871 741.452,258.402C741.764,258.938 742.022,259.061 742.031,258.678C742.049,257.955 743.704,257.682 743.704,258.402C743.704,258.63 745.582,258.802 747.878,258.784C750.173,258.767 752.176,258.953 752.327,259.198C752.479,259.444 753.135,259.644 753.785,259.644C754.73,259.644 754.829,259.782 754.277,260.334C753.586,261.025 746.921,261.351 747.339,260.673L747.339,260.671ZM756.402,260.654C756.402,260.401 756.589,260.177 756.816,260.157C757.044,260.136 758.025,260.016 758.997,259.889C761.181,259.603 761.959,260.55 759.858,260.937C757.78,261.319 756.402,261.207 756.402,260.654ZM716.653,258.814C716.653,258.51 715.721,258.262 714.582,258.262C713.444,258.262 712.329,258.51 712.106,258.814C711.836,259.182 711.697,259.182 711.691,258.814C711.679,258.122 708.371,257.959 708.371,258.65C708.371,258.928 708.145,259.016 707.869,258.845C707.344,258.52 702.487,257.998 697.329,257.713C695.659,257.62 694.293,257.489 694.293,257.421C694.293,257.051 687.029,257.045 686.564,257.415C685.735,258.074 680.215,258.535 680.215,257.944C680.215,257.663 679.842,257.434 679.387,257.434C678.931,257.434 678.559,257.674 678.559,257.967C678.559,258.299 674.67,258.401 668.207,258.238C662.514,258.094 657.256,257.98 656.524,257.983C655.791,257.988 654.363,257.759 653.349,257.48C652.241,257.174 651.507,257.172 651.507,257.475C651.507,257.976 649.576,257.895 649.052,257.371C648.901,257.22 646.389,257.185 643.469,257.293C639.95,257.423 637.898,257.271 637.381,256.842C636.773,256.337 636.599,256.362 636.592,256.952C636.586,257.431 636.434,257.497 636.178,257.133C635.934,256.787 632.794,256.529 628.319,256.487C624.22,256.45 611.798,256.277 600.715,256.103C589.632,255.929 575.409,255.754 569.108,255.714C562.808,255.674 557.652,255.485 557.651,255.295C557.651,255.105 556.284,254.949 554.615,254.949C552.945,254.949 551.58,255.136 551.58,255.363C551.58,255.591 551.317,255.777 550.995,255.777C550.674,255.777 550.564,255.529 550.752,255.225C550.939,254.922 550.706,254.673 550.232,254.673C549.759,254.673 549.372,254.425 549.372,254.121C549.372,253.818 549.108,253.569 548.787,253.569C548.465,253.569 548.356,253.818 548.543,254.121C548.745,254.447 548.137,254.67 547.058,254.665C545.675,254.658 545.432,254.526 546.059,254.121C546.671,253.726 546.696,253.584 546.158,253.578C545.596,253.571 545.618,253.379 546.256,252.741C546.712,252.286 547.599,251.913 548.228,251.913C548.857,251.913 549.372,251.648 549.372,251.324C549.372,250.974 549.849,250.886 550.545,251.107C551.334,251.357 551.595,251.279 551.34,250.868C551.133,250.532 551.11,250.257 551.289,250.257C551.469,250.257 551.804,250.768 552.035,251.392L552.455,252.528L553.911,251.382C554.909,250.598 555.488,250.433 555.751,250.858C556.023,251.298 556.269,251.261 556.597,250.73C556.974,250.121 560.761,249.985 576.817,250.001C587.684,250.013 601.046,250.181 606.512,250.377C611.978,250.572 621.046,250.875 626.663,251.051C646.947,251.687 652.172,251.918 652.627,252.199C653.642,252.827 658.091,253.383 658.765,252.967C659.18,252.711 659.663,252.802 659.911,253.184C660.231,253.678 660.478,253.635 660.884,253.017C661.183,252.562 661.431,252.437 661.436,252.741C661.442,253.09 664.857,253.269 670.692,253.226C679.915,253.16 695.673,254.051 695.674,254.639C695.674,254.81 697.6,254.921 699.952,254.887C703.985,254.829 713.273,255.584 714.92,256.105C715.528,256.297 715.539,256.503 714.98,257.177C714.417,257.856 714.431,257.966 715.056,257.769C715.479,257.635 716.518,257.374 717.365,257.188C718.314,256.979 718.783,256.591 718.587,256.175C718.411,255.805 718.557,255.89 718.911,256.366C719.431,257.065 720.141,257.15 722.62,256.814C724.363,256.577 726.103,256.621 726.654,256.916C727.186,257.201 728.321,257.468 729.176,257.509C730.608,257.578 730.626,257.604 729.399,257.835C728.368,258.029 728.243,258.198 728.847,258.58C729.7,259.12 728.983,259.188 721.207,259.3C718.495,259.339 716.653,259.143 716.653,258.814L716.653,258.814ZM556.197,253.848C556.023,253.395 555.658,253.161 555.387,253.329C554.607,253.811 554.81,254.673 555.703,254.673C556.196,254.673 556.39,254.35 556.197,253.848ZM523.998,255.736C524.566,254.674 524.533,254.553 523.751,254.853C522.972,255.152 522.937,255.032 523.498,253.982L524.15,252.764L524.699,253.995C525.33,255.407 526.47,255.612 526.936,254.397C527.111,253.942 527.054,253.569 526.811,253.569C526.567,253.569 526.368,253.194 526.368,252.734C526.368,252.055 526.867,251.966 529.037,252.253C530.859,252.495 531.705,252.41 531.705,251.984C531.705,251.638 532.578,251.361 533.67,251.361C534.958,251.361 535.505,251.57 535.259,251.968C534.993,252.4 535.219,252.396 536.043,251.955C537.005,251.44 537.146,251.478 536.878,252.176C536.701,252.639 536.334,253.017 536.062,253.017C535.791,253.017 535.569,253.266 535.569,253.569C535.569,254.72 536.567,254.055 537.226,252.465C537.994,250.611 538.014,250.601 539.398,251.341C540.096,251.715 540.311,252.298 540.121,253.297C539.971,254.079 540.066,254.647 540.331,254.558C540.597,254.47 540.938,254.64 541.09,254.937C541.254,255.256 539.941,255.515 537.878,255.57C534.689,255.656 534.338,255.55 533.787,254.34C533.193,253.036 531.153,252.464 531.153,253.602C531.153,253.923 531.398,254.035 531.699,253.849C532.007,253.659 532.107,253.87 531.929,254.334C531.745,254.814 531.251,255.017 530.741,254.821C530.173,254.603 530.004,254.706 530.257,255.116C530.701,255.834 528.866,256.365 526.736,256.134C525.977,256.051 524.902,256.205 524.348,256.475C523.445,256.914 523.408,256.838 523.998,255.736L523.998,255.736ZM539.101,253.661C539.258,253.408 539.035,253.201 538.606,253.201C538.177,253.201 537.954,253.408 538.111,253.661C538.267,253.914 538.49,254.121 538.606,254.121C538.722,254.121 538.945,253.914 539.101,253.661ZM516.561,255.84C516.395,255.571 516.754,255.222 517.359,255.063C518.092,254.872 518.347,254.482 518.122,253.896C517.937,253.413 518.018,253.017 518.304,253.017C519.061,253.017 518.939,254.821 518.126,255.633C517.302,256.457 516.97,256.501 516.561,255.84ZM519.947,254.305C520.102,253.9 520.3,253.569 520.387,253.569C520.474,253.569 520.672,253.9 520.828,254.305C520.983,254.71 520.785,255.041 520.387,255.041C519.99,255.041 519.791,254.71 519.947,254.305ZM522.076,252.759C522.665,252.313 523.692,251.94 524.357,251.931C525.674,251.911 526.513,252.749 525.688,253.258C525.405,253.433 525.079,253.291 524.963,252.941C524.804,252.464 524.458,252.464 523.572,252.936C521.875,253.845 520.807,253.717 522.076,252.757L522.076,252.759ZM514.74,252.684C514.923,252.5 515.4,252.48 515.798,252.64C516.238,252.816 516.108,252.947 515.464,252.974C514.883,252.997 514.556,252.867 514.74,252.684L514.74,252.684ZM543.851,252.465C543.143,252.008 543.163,251.929 543.989,251.921C544.52,251.916 544.955,252.161 544.955,252.465C544.955,253.138 544.893,253.138 543.851,252.465ZM540.886,251.624C540.622,250.938 540.764,250.891 541.655,251.367C542.935,252.052 543.056,252.465 541.977,252.465C541.554,252.465 541.063,252.087 540.886,251.624Z" style="fill:rgb(110,212,124);fill-rule:nonzero;"/>
    </g>
</svg>
