<?xml version="1.0" encoding="UTF-8" standalone="no"?>
<!DOCTYPE svg PUBLIC "-//W3C//DTD SVG 1.1//EN" "http://www.w3.org/Graphics/SVG/1.1/DTD/svg11.dtd">
<svg width="100%" height="100%" viewBox="0 0 84 84" version="1.1" xmlns="http://www.w3.org/2000/svg" xmlns:xlink="http://www.w3.org/1999/xlink" xml:space="preserve" xmlns:serif="http://www.serif.com/" style="fill-rule:evenodd;clip-rule:evenodd;stroke-linejoin:round;stroke-miterlimit:2;">
    <g transform="matrix(4.16667,0,0,4.16667,-8.33333,-8.33333)">
        <path id="Combined-Shape" d="M12,22C6.477,22 2,17.523 2,12C2,6.477 6.477,2 12,2C17.523,2 22,6.477 22,12C22,17.523 17.523,22 12,22ZM11.614,13.213C11.169,13.658 10.489,13.769 9.926,13.487C9.363,13.205 8.683,13.316 8.238,13.761L6.727,15.272C6.672,15.327 6.63,15.394 6.606,15.467C6.518,15.729 6.66,16.013 6.922,16.1L8.276,16.551C9.576,16.984 11.009,16.646 11.978,15.677L15.978,11.678C16.868,10.788 17.088,9.428 16.525,8.302L15.893,7.036C15.869,6.988 15.837,6.944 15.799,6.906C15.604,6.711 15.287,6.711 15.092,6.906L13.5,8.499C13.054,8.944 12.944,9.624 13.226,10.187C13.507,10.75 13.397,11.43 12.952,11.875L11.614,13.213Z" style="fill:rgb(58,0,140);"/>
    </g>
</svg>
