<?xml version="1.0" encoding="UTF-8" standalone="no"?>
<!DOCTYPE svg PUBLIC "-//W3C//DTD SVG 1.1//EN" "http://www.w3.org/Graphics/SVG/1.1/DTD/svg11.dtd">
<svg width="100%" height="100%" viewBox="0 0 76 75" version="1.1" xmlns="http://www.w3.org/2000/svg" xmlns:xlink="http://www.w3.org/1999/xlink" xml:space="preserve" xmlns:serif="http://www.serif.com/" style="fill-rule:evenodd;clip-rule:evenodd;stroke-linejoin:round;stroke-miterlimit:2;">
    <g transform="matrix(4.16667,0,0,4.16667,-12.5,-12.5)">
        <path id="Path-95" d="M5,19L20,19C20.552,19 21,19.448 21,20C21,20.552 20.552,21 20,21L4,21C3.448,21 3,20.552 3,20L3,4C3,3.448 3.448,3 4,3C4.552,3 5,3.448 5,4L5,19Z" style="fill:rgb(58,0,140);fill-rule:nonzero;"/>
        <path id="Path-97" d="M8.73,14.684C8.352,15.087 7.719,15.107 7.316,14.73C6.913,14.352 6.893,13.719 7.27,13.316L11.02,9.316C11.386,8.926 11.993,8.893 12.399,9.239L15.359,11.765L19.215,6.88C19.557,6.447 20.186,6.373 20.62,6.715C21.053,7.057 21.127,7.686 20.785,8.12L16.285,13.82C15.933,14.265 15.282,14.329 14.851,13.961L11.827,11.38L8.73,14.684Z" style="fill:rgb(255,116,60);fill-opacity:0.3;fill-rule:nonzero;"/>
    </g>
</svg>
