<?xml version="1.0" encoding="UTF-8" standalone="no"?>
<!DOCTYPE svg PUBLIC "-//W3C//DTD SVG 1.1//EN" "http://www.w3.org/Graphics/SVG/1.1/DTD/svg11.dtd">
<svg width="100%" height="100%" viewBox="0 0 88 91" version="1.1" xmlns="http://www.w3.org/2000/svg" xmlns:xlink="http://www.w3.org/1999/xlink" xml:space="preserve" xmlns:serif="http://www.serif.com/" style="fill-rule:evenodd;clip-rule:evenodd;stroke-linejoin:round;stroke-miterlimit:2;">
    <g transform="matrix(4.16667,0,0,4.16667,-4.16667,-5.16503)">
        <path id="Path-107" d="M10.963,7.5L11.048,7.5C11.304,7.5 11.519,7.695 11.545,7.95L12,12.5L15.248,14.356C15.404,14.445 15.5,14.611 15.5,14.79L15.5,15C15.5,15.211 15.329,15.382 15.118,15.382C15.084,15.382 15.05,15.377 15.018,15.368L10.399,14.109C10.167,14.046 10.013,13.827 10.032,13.588L10.464,7.962C10.485,7.701 10.702,7.5 10.963,7.5Z" style="fill:rgb(58,0,140);"/>
        <path id="Combined-Shape" d="M7.39,2.835C8.652,2.297 10.041,2 11.5,2C17.299,2 22,6.701 22,12.5C22,18.299 17.299,23 11.5,23C5.701,23 1,18.299 1,12.5C1,11.515 1.136,10.562 1.389,9.658L3.315,10.198C3.107,10.94 3,11.712 3,12.5C3,17.194 6.806,21 11.5,21C16.194,21 20,17.194 20,12.5C20,7.806 16.194,4 11.5,4C10.549,4 9.622,4.156 8.749,4.454L9.939,5.874C10.009,5.956 10.05,6.059 10.056,6.167C10.071,6.442 9.86,6.679 9.585,6.694L4.718,6.97C4.669,6.973 4.621,6.968 4.573,6.957C4.305,6.893 4.139,6.623 4.203,6.355L5.332,1.624C5.357,1.519 5.414,1.426 5.497,1.357C5.708,1.179 6.024,1.207 6.201,1.418L7.39,2.835Z" style="fill:rgb(255,116,60);fill-opacity:0.3;"/>
    </g>
</svg>
