<?xml version="1.0" encoding="UTF-8" standalone="no"?>
<!DOCTYPE svg PUBLIC "-//W3C//DTD SVG 1.1//EN" "http://www.w3.org/Graphics/SVG/1.1/DTD/svg11.dtd">
<svg width="100%" height="100%" viewBox="0 0 43 80" version="1.1" xmlns="http://www.w3.org/2000/svg" xmlns:xlink="http://www.w3.org/1999/xlink" xml:space="preserve" xmlns:serif="http://www.serif.com/" style="fill-rule:evenodd;clip-rule:evenodd;stroke-linejoin:round;stroke-miterlimit:2;">
    <g transform="matrix(4.16667,0,0,4.16667,-30.3542,-8.33333)">
        <path id="Rectangle" d="M13.5,3C13.5,2.448 13.052,2 12.5,2C11.948,2 11.5,2.448 11.5,3L11.5,5C11.5,5.552 11.948,6 12.5,6C13.052,6 13.5,5.552 13.5,5L13.5,3Z" style="fill:rgb(255,116,60);fill-opacity:0.3;"/>
        <path id="Rectangle-Copy-3" d="M13.5,17C13.5,16.448 13.052,16 12.5,16C11.948,16 11.5,16.448 11.5,17L11.5,20C11.5,20.552 11.948,21 12.5,21C13.052,21 13.5,20.552 13.5,20L13.5,17Z" style="fill:rgb(255,116,60);fill-opacity:0.3;"/>
        <path id="Combined-Shape" d="M15.493,8.044C15.214,7.689 14.85,7.408 14.4,7.199C13.951,6.989 13.517,6.885 13.099,6.885C12.884,6.885 12.665,6.904 12.444,6.942C12.222,6.98 12.022,7.053 11.845,7.161C11.668,7.268 11.519,7.407 11.399,7.579C11.278,7.75 11.218,7.968 11.218,8.234C11.218,8.462 11.265,8.652 11.361,8.804C11.456,8.956 11.595,9.089 11.778,9.203C11.962,9.317 12.181,9.421 12.434,9.517C12.687,9.612 12.972,9.71 13.289,9.811C13.745,9.963 14.22,10.131 14.714,10.315C15.208,10.498 15.658,10.742 16.063,11.046C16.468,11.35 16.804,11.727 17.07,12.177C17.336,12.626 17.469,13.187 17.469,13.858C17.469,14.631 17.327,15.299 17.042,15.863C16.756,16.426 16.373,16.892 15.892,17.259C15.411,17.626 14.86,17.899 14.239,18.076C13.618,18.253 12.979,18.342 12.32,18.342C11.357,18.342 10.426,18.174 9.527,17.839C8.628,17.503 7.88,17.025 7.285,16.404L9.413,14.238C9.742,14.643 10.176,14.982 10.714,15.255C11.253,15.527 11.788,15.663 12.32,15.663C12.561,15.663 12.795,15.638 13.023,15.587C13.251,15.536 13.45,15.454 13.621,15.34C13.793,15.226 13.929,15.074 14.03,14.884C14.131,14.694 14.182,14.466 14.182,14.2C14.182,13.947 14.119,13.731 13.992,13.554C13.865,13.377 13.685,13.215 13.451,13.07C13.216,12.924 12.925,12.791 12.576,12.671C12.228,12.55 11.832,12.42 11.389,12.281C10.958,12.142 10.537,11.977 10.126,11.787C9.714,11.597 9.347,11.353 9.024,11.056C8.7,10.758 8.441,10.397 8.245,9.973C8.048,9.548 7.95,9.032 7.95,8.424C7.95,7.677 8.102,7.037 8.406,6.505C8.71,5.973 9.109,5.536 9.603,5.194C10.097,4.852 10.654,4.602 11.275,4.444C11.896,4.285 12.523,4.206 13.156,4.206C13.916,4.206 14.692,4.345 15.483,4.624C16.275,4.903 16.969,5.314 17.564,5.859L15.493,8.044Z" style="fill:rgb(58,0,140);"/>
    </g>
</svg>
