<?xml version="1.0" encoding="UTF-8" standalone="no"?>
<!DOCTYPE svg PUBLIC "-//W3C//DTD SVG 1.1//EN" "http://www.w3.org/Graphics/SVG/1.1/DTD/svg11.dtd">
<svg width="100%" height="100%" viewBox="0 0 68 76" version="1.1" xmlns="http://www.w3.org/2000/svg" xmlns:xlink="http://www.w3.org/1999/xlink" xml:space="preserve" xmlns:serif="http://www.serif.com/" style="fill-rule:evenodd;clip-rule:evenodd;stroke-linejoin:round;stroke-miterlimit:2;">
    <g transform="matrix(4.16667,0,0,4.16667,-16.1234,-12.1523)">
        <path id="Shape" d="M12.934,16.072L19.36,10.956L19.518,10.831C20.168,10.317 20.277,9.374 19.763,8.724C19.692,8.634 19.61,8.553 19.521,8.481L12.934,3.243C12.387,2.808 11.613,2.808 11.066,3.243L4.475,8.485C3.826,9.001 3.719,9.944 4.235,10.593C4.305,10.681 4.385,10.762 4.474,10.832L4.63,10.956L11.066,16.073C11.613,16.508 12.387,16.507 12.934,16.072Z" style="fill:rgb(58,0,140);fill-rule:nonzero;"/>
        <path id="Path" d="M11.056,18.671L5.336,14.123C4.946,13.813 4.377,13.877 4.067,14.268C4.065,14.271 4.062,14.274 4.06,14.277C3.753,14.674 3.825,15.245 4.222,15.552C4.224,15.553 4.225,15.555 4.226,15.556L11.087,20.803C11.625,21.214 12.372,21.215 12.91,20.803L19.768,15.56C20.169,15.253 20.246,14.678 19.939,14.277C19.938,14.275 19.936,14.273 19.935,14.272C19.627,13.874 19.055,13.802 18.657,14.11C18.654,14.113 18.651,14.115 18.649,14.117L12.924,18.671C12.377,19.105 11.603,19.105 11.056,18.671Z" style="fill:rgb(255,116,60);fill-opacity:0.3;"/>
    </g>
</svg>
