<?xml version="1.0" encoding="UTF-8" standalone="no"?>
<!DOCTYPE svg PUBLIC "-//W3C//DTD SVG 1.1//EN" "http://www.w3.org/Graphics/SVG/1.1/DTD/svg11.dtd">
<svg width="100%" height="100%" viewBox="0 0 64 71" version="1.1" xmlns="http://www.w3.org/2000/svg" xmlns:xlink="http://www.w3.org/1999/xlink" xml:space="preserve" xmlns:serif="http://www.serif.com/" style="fill-rule:evenodd;clip-rule:evenodd;stroke-linejoin:round;stroke-miterlimit:2;">
    <g transform="matrix(4.16667,0,0,4.16667,-18.1705,-16.6667)">
        <path id="Rectangle-58" d="M14,9L14,8C14,6.895 13.105,6 12,6C10.895,6 10,6.895 10,8L10,9L8,9L8,8C8,5.791 9.791,4 12,4C14.209,4 16,5.791 16,8L16,9L14,9ZM14,9L14,8C14,6.895 13.105,6 12,6C10.895,6 10,6.895 10,8L10,9L8,9L8,8C8,5.791 9.791,4 12,4C14.209,4 16,5.791 16,8L16,9L14,9Z" style="fill:rgb(255,116,60);fill-opacity:0.3;fill-rule:nonzero;"/>
        <path id="Combined-Shape" d="M6.847,9L17.153,9C17.642,9 18.059,9.353 18.139,9.836L19.612,18.671C19.793,19.761 19.057,20.791 17.968,20.973C17.859,20.991 17.749,21 17.639,21L6.361,21C5.256,21 4.361,20.105 4.361,19C4.361,18.89 4.37,18.78 4.388,18.671L5.861,9.836C5.941,9.353 6.358,9 6.847,9Z" style="fill:rgb(58,0,140);"/>
    </g>
</svg>
