<?xml version="1.0" encoding="UTF-8" standalone="no"?>
<!DOCTYPE svg PUBLIC "-//W3C//DTD SVG 1.1//EN" "http://www.w3.org/Graphics/SVG/1.1/DTD/svg11.dtd">
<svg width="100%" height="100%" viewBox="0 0 96 61" version="1.1" xmlns="http://www.w3.org/2000/svg" xmlns:xlink="http://www.w3.org/1999/xlink" xml:space="preserve" xmlns:serif="http://www.serif.com/" style="fill-rule:evenodd;clip-rule:evenodd;stroke-linejoin:round;stroke-miterlimit:2;">
    <g transform="matrix(4.16667,0,0,4.16667,-0.75,-19.3333)">
        <path id="Aa" d="M0.18,19L7.1,4.64L14.02,19L12.06,19L10.3,15.28L3.9,15.28L2.14,19L0.18,19ZM7.1,8.52L4.7,13.6L9.5,13.6L7.1,8.52Z" style="fill:rgb(58,0,140);"/>
        <path id="Combined-Shape" d="M21.34,19L21.34,18C20.5,18.76 19.38,19.16 18.16,19.16C15.22,19.16 13.06,16.9 13.06,14C13.06,11.1 15.22,8.84 18.16,8.84C19.38,8.84 20.5,9.24 21.34,10L21.34,9L23.06,9L23.06,19L21.34,19ZM18.2,17.54C19.64,17.54 20.76,16.86 21.34,15.92L21.34,12.08C20.76,11.14 19.64,10.46 18.2,10.46C16.24,10.46 14.84,12.02 14.84,14C14.84,15.98 16.24,17.54 18.2,17.54Z" style="fill:rgb(255,116,60);fill-opacity:0.3;"/>
    </g>
</svg>
