<?xml version="1.0" encoding="UTF-8" standalone="no"?>
<!DOCTYPE svg PUBLIC "-//W3C//DTD SVG 1.1//EN" "http://www.w3.org/Graphics/SVG/1.1/DTD/svg11.dtd">
<svg width="100%" height="100%" viewBox="0 0 84 67" version="1.1" xmlns="http://www.w3.org/2000/svg" xmlns:xlink="http://www.w3.org/1999/xlink" xml:space="preserve" xmlns:serif="http://www.serif.com/" style="fill-rule:evenodd;clip-rule:evenodd;stroke-linejoin:round;stroke-miterlimit:2;">
    <g transform="matrix(4.16667,0,0,4.16667,-8.33333,-20.8333)">
        <path id="Combined-Shape" d="M11,20L11,17C11,16.448 11.448,16 12,16C12.552,16 13,16.448 13,17L13,20L15.5,20C15.776,20 16,20.224 16,20.5C16,20.776 15.776,21 15.5,21L8.5,21C8.224,21 8,20.776 8,20.5C8,20.224 8.224,20 8.5,20L11,20Z" style="fill:rgb(255,116,60);fill-opacity:0.3;"/>
        <path id="Combined-Shape1" serif:id="Combined-Shape" d="M3,5L21,5C21.552,5 22,5.448 22,6L22,16C22,16.552 21.552,17 21,17L3,17C2.448,17 2,16.552 2,16L2,6C2,5.448 2.448,5 3,5ZM4.5,8C4.224,8 4,8.224 4,8.5C4,8.776 4.224,9 4.5,9L13.5,9C13.776,9 14,8.776 14,8.5C14,8.224 13.776,8 13.5,8L4.5,8ZM4.5,10C4.224,10 4,10.224 4,10.5C4,10.776 4.224,11 4.5,11L7.5,11C7.776,11 8,10.776 8,10.5C8,10.224 7.776,10 7.5,10L4.5,10Z" style="fill:rgb(58,0,140);"/>
    </g>
</svg>
