<?xml version="1.0" encoding="UTF-8" standalone="no"?>
<!DOCTYPE svg PUBLIC "-//W3C//DTD SVG 1.1//EN" "http://www.w3.org/Graphics/SVG/1.1/DTD/svg11.dtd">
<svg width="100%" height="100%" viewBox="0 0 85 84" version="1.1" xmlns="http://www.w3.org/2000/svg" xmlns:xlink="http://www.w3.org/1999/xlink" xml:space="preserve" xmlns:serif="http://www.serif.com/" style="fill-rule:evenodd;clip-rule:evenodd;stroke-linejoin:round;stroke-miterlimit:2;">
    <g transform="matrix(4.16667,0,0,4.16667,-7.69056,-7.20257)">
        <path id="Combined-Shape" d="M12,20.022L8.473,21.729L6.869,18.154L3.07,17.195L4.139,13.426L1.846,10.249L5.087,8.048L5.372,4.141L9.27,4.539L12,1.729L14.73,4.539L18.628,4.141L18.913,8.048L22.154,10.249L19.861,13.426L20.93,17.195L17.131,18.154L15.527,21.729L12,20.022Z" style="fill:rgb(255,116,60);fill-opacity:0.3;"/>
        <path id="Stroke-1" d="M14.089,8.603L8.361,14.701L9.709,16.049L15.437,9.95L14.089,8.603Z" style="fill:rgb(58,0,140);"/>
        <path id="Fill-2" d="M10.854,9.175C10.854,10.125 10.086,10.894 9.136,10.894C8.188,10.894 7.417,10.125 7.417,9.175C7.417,8.226 8.188,7.457 9.136,7.457C10.086,7.457 10.854,8.226 10.854,9.175" style="fill:rgb(255,199,0);fill-opacity:0.3;"/>
        <path id="Fill-4" d="M14.864,16.622C13.916,16.622 13.146,15.854 13.146,14.904C13.146,13.952 13.916,13.185 14.864,13.185C15.814,13.185 16.583,13.952 16.583,14.904C16.583,15.854 15.814,16.622 14.864,16.622Z" style="fill:rgb(255,199,0);fill-opacity:0.3;"/>
    </g>
</svg>
