<?xml version="1.0" encoding="UTF-8" standalone="no"?>
<!DOCTYPE svg PUBLIC "-//W3C//DTD SVG 1.1//EN" "http://www.w3.org/Graphics/SVG/1.1/DTD/svg11.dtd">
<svg width="100%" height="100%" viewBox="0 0 84 84" version="1.1" xmlns="http://www.w3.org/2000/svg" xmlns:xlink="http://www.w3.org/1999/xlink" xml:space="preserve" xmlns:serif="http://www.serif.com/" style="fill-rule:evenodd;clip-rule:evenodd;stroke-linejoin:round;stroke-miterlimit:2;">
    <g transform="matrix(4.16667,0,0,4.16667,-8.33333,-8.33333)">
        <circle id="Oval-5" cx="12" cy="12" r="10" style="fill:rgb(255,116,60);fill-opacity:0.3;"/>
        <path id="Combined-Shape" d="M14.5,11C15.052,11 15.5,11.448 15.5,12L15.5,15C15.5,15.552 15.052,16 14.5,16L9.5,16C8.948,16 8.5,15.552 8.5,15L8.5,12C8.5,11.448 8.948,11 9.5,11L9.5,10.5C9.5,9.119 10.619,8 12,8C13.381,8 14.5,9.119 14.5,10.5L14.5,11ZM12,9C11.172,9 10.5,9.672 10.5,10.5L10.5,11L13.5,11L13.5,10.5C13.5,9.672 12.828,9 12,9Z" style="fill:rgb(58,0,140);"/>
    </g>
</svg>
