<?xml version="1.0" encoding="UTF-8" standalone="no"?>
<!DOCTYPE svg PUBLIC "-//W3C//DTD SVG 1.1//EN" "http://www.w3.org/Graphics/SVG/1.1/DTD/svg11.dtd">
<svg width="100%" height="100%" viewBox="0 0 75 71" version="1.1" xmlns="http://www.w3.org/2000/svg" xmlns:xlink="http://www.w3.org/1999/xlink" xml:space="preserve" xmlns:serif="http://www.serif.com/" style="fill-rule:evenodd;clip-rule:evenodd;stroke-linejoin:round;stroke-miterlimit:2;">
    <g transform="matrix(4.16667,0,0,4.16667,-12.5,-8.33333)">
        <path id="Combined-Shape" d="M6,2L18,2C18.552,2 19,2.448 19,3L19,12C19,12.552 18.552,13 18,13L6,13C5.448,13 5,12.552 5,12L5,3C5,2.448 5.448,2 6,2ZM7.5,5C7.224,5 7,5.224 7,5.5C7,5.776 7.224,6 7.5,6L13.5,6C13.776,6 14,5.776 14,5.5C14,5.224 13.776,5 13.5,5L7.5,5ZM7.5,7C7.224,7 7,7.224 7,7.5C7,7.776 7.224,8 7.5,8L10.5,8C10.776,8 11,7.776 11,7.5C11,7.224 10.776,7 10.5,7L7.5,7Z" style="fill:rgb(255,116,60);fill-opacity:0.3;"/>
        <path id="Combined-Shape1" serif:id="Combined-Shape" d="M3.793,6.573L12,12.5L20.207,6.573C20.431,6.411 20.744,6.461 20.905,6.685C20.967,6.77 21,6.873 21,6.978L21,17C21,18.105 20.105,19 19,19L5,19C3.895,19 3,18.105 3,17L3,6.978C3,6.702 3.224,6.478 3.5,6.478C3.605,6.478 3.708,6.511 3.793,6.573Z" style="fill:rgb(58,0,140);"/>
    </g>
</svg>
