<?xml version="1.0" encoding="UTF-8" standalone="no"?>
<!DOCTYPE svg PUBLIC "-//W3C//DTD SVG 1.1//EN" "http://www.w3.org/Graphics/SVG/1.1/DTD/svg11.dtd">
<svg width="100%" height="100%" viewBox="0 0 84 67" version="1.1" xmlns="http://www.w3.org/2000/svg" xmlns:xlink="http://www.w3.org/1999/xlink" xml:space="preserve" xmlns:serif="http://www.serif.com/" style="fill-rule:evenodd;clip-rule:evenodd;stroke-linejoin:round;stroke-miterlimit:2;">
    <g transform="matrix(4.16667,0,0,4.16667,-8.33333,-16.6667)">
        <path id="Rectangle-25" d="M22,6C22,4.896 21.104,4 20,4L4,4C2.896,4 2,4.896 2,6L2,18C2,19.104 2.896,20 4,20L20,20C21.104,20 22,19.104 22,18L22,6Z" style="fill:rgb(58,0,140);fill-opacity:0.3;"/>
        <path id="Path" d="M4,20L10.5,11L17,20L4,20Z" style="fill:rgb(255,199,0);fill-opacity:0.3;"/>
        <path id="Path-Copy" d="M11,20L15.5,14L20,20L11,20Z" style="fill:rgb(255,116,60);"/>
        <circle id="Oval-76" cx="18.5" cy="8.5" r="1.5" style="fill:rgb(255,199,0);fill-opacity:0.3;"/>
    </g>
</svg>
