<?xml version="1.0" encoding="UTF-8" standalone="no"?>
<!DOCTYPE svg PUBLIC "-//W3C//DTD SVG 1.1//EN" "http://www.w3.org/Graphics/SVG/1.1/DTD/svg11.dtd">
<svg width="100%" height="100%" viewBox="0 0 1562 1800" version="1.1" xmlns="http://www.w3.org/2000/svg" xmlns:xlink="http://www.w3.org/1999/xlink" xml:space="preserve" xmlns:serif="http://www.serif.com/" style="fill-rule:evenodd;clip-rule:evenodd;stroke-linejoin:round;stroke-miterlimit:2;">
    <g transform="matrix(1,0,0,1,-1319,-1.87239e-13)">
        <g transform="matrix(6.12323e-17,-1,1,6.12323e-17,2380,1401.21)">
            <path d="M600,500L700,500C755.228,500 800,455.228 800,400L700,400C644.772,400 600,444.772 600,500Z" style="fill:rgb(45,54,82);fill-rule:nonzero;"/>
            <path d="M600,0L600,200C600,310.456 689.544,400 800,400L800,200C800,89.544 710.456,0 600,0Z" style="fill:rgb(255,116,60);fill-rule:nonzero;"/>
            <path d="M700,200.69L700,299.841C700,355.157 744.772,400 800,400L800,300.849C800,245.531 755.228,200.69 700,200.69Z" style="fill:rgb(45,54,82);fill-rule:nonzero;"/>
            <path d="M1200,200L1000,200C889.544,200 800,289.544 800,400L1000,400C1110.46,400 1200,310.456 1200,200Z" style="fill:rgb(45,54,82);fill-rule:nonzero;"/>
            <path d="M1000,300L900.506,300C844.998,300 800,344.772 800,400L899.494,400C955.004,400 1000,355.228 1000,300Z" style="fill:rgb(240,241,241);fill-rule:nonzero;"/>
        </g>
        <g transform="matrix(1.83697e-16,-1,1,1.83697e-16,2476.24,2622.16)">
            <g transform="matrix(-0.999496,-3.46841e-18,-3.4677e-18,0.999701,2622.16,-796.573)">
                <path d="M0,1000.69C0,890.234 89.543,800.69 200,800.69L200,1000.69L0,1000.69Z" style="fill:rgb(255,116,60);fill-rule:nonzero;"/>
            </g>
            <g transform="matrix(-0.999496,-3.46841e-18,-3.4677e-18,0.999701,2622.16,-796.573)">
                <path d="M200,1200.69C89.543,1200.69 0,1111.15 0,1000.69L200,1000.69L200,1200.69Z" style="fill:rgb(213,225,85);fill-rule:nonzero;"/>
            </g>
            <g transform="matrix(-0.999496,-3.46841e-18,-3.4677e-18,0.999701,2622.16,-796.573)">
                <path d="M200,1102.76C143.629,1102.76 97.931,1057.06 97.931,1000.69L200,1000.69L200,1102.76Z" style="fill:rgb(45,54,82);fill-rule:nonzero;"/>
            </g>
        </g>
        <g transform="matrix(1,0,0,1,2790,199.982)">
            <g transform="matrix(-0.999496,0,0,0.999701,1301.42,198.627)">
                <path d="M1222.07,51.379C1222.07,34.811 1235.5,21.379 1252.07,21.379C1268.64,21.379 1282.07,34.811 1282.07,51.379C1282.07,67.947 1268.64,81.379 1252.07,81.379C1235.5,81.379 1222.07,67.947 1222.07,51.379Z" style="fill:rgb(110,212,124);fill-rule:nonzero;"/>
            </g>
            <g transform="matrix(-0.999496,0,0,0.999701,1397.93,298.627)">
                <path d="M1318.62,51.379C1318.62,34.811 1332.05,21.379 1348.62,21.379C1365.19,21.379 1378.62,34.811 1378.62,51.379C1378.62,67.947 1365.19,81.379 1348.62,81.379C1332.05,81.379 1318.62,67.947 1318.62,51.379Z" style="fill:rgb(213,225,85);fill-rule:nonzero;"/>
            </g>
            <g transform="matrix(-0.999496,-2.65252e-17,-2.65292e-17,0.999701,194.395,-594.959)">
                <path d="M174.483,745.172C174.483,761.74 161.051,775.172 144.483,775.172C127.914,775.172 114.483,761.74 114.483,745.172C114.483,728.604 127.914,715.172 144.483,715.172C161.051,715.172 174.483,728.604 174.483,745.172Z" style="fill:rgb(255,116,60);fill-rule:nonzero;"/>
            </g>
            <g transform="matrix(-0.999496,-2.65252e-17,-2.65292e-17,0.999701,99.9899,-694.941)">
                <path d="M80,745.172C80,761.74 66.569,775.172 50,775.172C33.431,775.172 20,761.74 20,745.172C20,728.604 33.431,715.172 50,715.172C66.569,715.172 80,728.604 80,745.172Z" style="fill:rgb(45,54,82);fill-rule:nonzero;"/>
            </g>
        </g>
        <g transform="matrix(6.12323e-17,-1,1,6.12323e-17,2482.1,1336.69)">
            <g transform="matrix(-0.999496,0,0,0.999701,1301.42,198.627)">
                <path d="M1222.07,51.379C1222.07,34.811 1235.5,21.379 1252.07,21.379C1268.64,21.379 1282.07,34.811 1282.07,51.379C1282.07,67.947 1268.64,81.379 1252.07,81.379C1235.5,81.379 1222.07,67.947 1222.07,51.379Z" style="fill:rgb(110,212,124);fill-rule:nonzero;"/>
            </g>
            <g transform="matrix(-0.999496,0,0,0.999701,1397.93,298.627)">
                <path d="M1318.62,51.379C1318.62,34.811 1332.05,21.379 1348.62,21.379C1365.19,21.379 1378.62,34.811 1378.62,51.379C1378.62,67.947 1365.19,81.379 1348.62,81.379C1332.05,81.379 1318.62,67.947 1318.62,51.379Z" style="fill:rgb(213,225,85);fill-rule:nonzero;"/>
            </g>
            <g transform="matrix(-0.999496,-2.65252e-17,-2.65292e-17,0.999701,194.395,-594.959)">
                <path d="M174.483,745.172C174.483,761.74 161.051,775.172 144.483,775.172C127.914,775.172 114.483,761.74 114.483,745.172C114.483,728.604 127.914,715.172 144.483,715.172C161.051,715.172 174.483,728.604 174.483,745.172Z" style="fill:rgb(255,116,60);fill-rule:nonzero;"/>
            </g>
            <g transform="matrix(-0.999496,-2.65252e-17,-2.65292e-17,0.999701,99.9899,-694.941)">
                <path d="M80,745.172C80,761.74 66.569,775.172 50,775.172C33.431,775.172 20,761.74 20,745.172C20,728.604 33.431,715.172 50,715.172C66.569,715.172 80,728.604 80,745.172Z" style="fill:rgb(45,54,82);fill-rule:nonzero;"/>
            </g>
        </g>
        <g transform="matrix(-1,-1.22465e-16,1.22465e-16,-1,2017.1,1348.69)">
            <g transform="matrix(-0.999496,0,0,0.999701,1301.42,198.627)">
                <path d="M1222.07,51.379C1222.07,34.811 1235.5,21.379 1252.07,21.379C1268.64,21.379 1282.07,34.811 1282.07,51.379C1282.07,67.947 1268.64,81.379 1252.07,81.379C1235.5,81.379 1222.07,67.947 1222.07,51.379Z" style="fill:rgb(110,212,124);fill-rule:nonzero;"/>
            </g>
            <g transform="matrix(-0.999496,0,0,0.999701,1397.93,298.627)">
                <path d="M1318.62,51.379C1318.62,34.811 1332.05,21.379 1348.62,21.379C1365.19,21.379 1378.62,34.811 1378.62,51.379C1378.62,67.947 1365.19,81.379 1348.62,81.379C1332.05,81.379 1318.62,67.947 1318.62,51.379Z" style="fill:rgb(213,225,85);fill-rule:nonzero;"/>
            </g>
            <g transform="matrix(-0.999496,-2.65252e-17,-2.65292e-17,0.999701,194.395,-594.959)">
                <path d="M174.483,745.172C174.483,761.74 161.051,775.172 144.483,775.172C127.914,775.172 114.483,761.74 114.483,745.172C114.483,728.604 127.914,715.172 144.483,715.172C161.051,715.172 174.483,728.604 174.483,745.172Z" style="fill:rgb(255,116,60);fill-rule:nonzero;"/>
            </g>
            <g transform="matrix(-0.999496,-2.65252e-17,-2.65292e-17,0.999701,99.9899,-694.941)">
                <path d="M80,745.172C80,761.74 66.569,775.172 50,775.172C33.431,775.172 20,761.74 20,745.172C20,728.604 33.431,715.172 50,715.172C66.569,715.172 80,728.604 80,745.172Z" style="fill:rgb(45,54,82);fill-rule:nonzero;"/>
            </g>
        </g>
        <g transform="matrix(1,0,0,1,949.983,413.523)">
            <path d="M1400,400C1289.54,400 1200,310.456 1200,200L1400,200L1400,400Z" style="fill:rgb(255,199,0);fill-rule:nonzero;"/>
        </g>
        <g transform="matrix(3.81639e-17,1,-1,3.81639e-17,2500.5,-995.814)">
            <path d="M1397,82L1297,82C1241.77,82 1197,126.772 1197,182L1297,182C1352.23,182 1397,137.228 1397,82Z" style="fill:rgb(45,54,82);fill-rule:nonzero;"/>
        </g>
        <g transform="matrix(3.81639e-17,1,-1,3.81639e-17,2500.5,-995.814)">
            <path d="M1597,101L1497,101C1441.77,101 1397,145.772 1397,201L1497,201C1552.23,201 1597,156.228 1597,101Z" style="fill:rgb(255,199,0);fill-rule:nonzero;"/>
        </g>
        <g transform="matrix(3.81639e-17,1,-1,3.81639e-17,2500.5,-995.814)">
            <path d="M1597,101L1497,101C1441.77,101 1397,56.228 1397,1L1497,1C1552.23,1 1597,45.772 1597,101Z" style="fill:rgb(255,116,60);fill-rule:nonzero;"/>
        </g>
        <g transform="matrix(6.12323e-17,-1,-1,-6.12323e-17,2439.28,2048.77)">
            <path d="M1200,200L1000,200C889.544,200 800,289.544 800,400L1000,400C1110.46,400 1200,310.456 1200,200Z" style="fill:rgb(45,54,82);fill-rule:nonzero;"/>
        </g>
        <g transform="matrix(6.12323e-17,-1,-1,-6.12323e-17,2439.28,2048.77)">
            <path d="M1000,300L900.506,300C844.998,300 800,344.772 800,400L899.494,400C955.004,400 1000,355.228 1000,300Z" style="fill:rgb(240,241,241);fill-rule:nonzero;"/>
        </g>
        <g transform="matrix(3.81639e-17,1,-1,3.81639e-17,2500.5,-995.814)">
            <path d="M1222.07,51.379C1222.07,34.811 1235.5,21.379 1252.07,21.379C1268.64,21.379 1282.07,34.811 1282.07,51.379C1282.07,67.947 1268.64,81.379 1252.07,81.379C1235.5,81.379 1222.07,67.947 1222.07,51.379Z" style="fill:rgb(110,212,124);fill-rule:nonzero;"/>
        </g>
        <g transform="matrix(3.81639e-17,1,-1,3.81639e-17,2500.5,-995.814)">
            <path d="M1318.62,51.379C1318.62,34.811 1332.05,21.379 1348.62,21.379C1365.19,21.379 1378.62,34.811 1378.62,51.379C1378.62,67.947 1365.19,81.379 1348.62,81.379C1332.05,81.379 1318.62,67.947 1318.62,51.379Z" style="fill:rgb(213,225,85);fill-rule:nonzero;"/>
        </g>
        <g transform="matrix(1,2.30684e-17,-2.30684e-17,1,1041.16,1402.68)">
            <path d="M1397,82L1297,82C1241.77,82 1197,126.772 1197,182L1297,182C1352.23,182 1397,137.228 1397,82Z" style="fill:rgb(255,193,7);fill-rule:nonzero;"/>
        </g>
        <g transform="matrix(1,0,0,-1,1652.22,1636.09)">
            <path d="M800,500C800,444.772 844.772,400 900,400C955.228,400 1000,444.772 1000,500C1000,555.228 955.228,600 900,600L800,600L800,500Z" style="fill:rgb(255,116,60);fill-rule:nonzero;"/>
        </g>
        <g transform="matrix(1,0,0,-1,1652.22,1637.09)">
            <path d="M800,548.965C800,520.399 823.158,497.241 851.725,497.241C880.291,497.241 903.448,520.399 903.448,548.965C903.448,577.532 880.291,600.69 851.725,600.69L800,600.69L800,548.965Z" style="fill:rgb(255,199,0);fill-rule:nonzero;"/>
        </g>
        <g transform="matrix(1,0,0,1,1252.22,836.396)">
            <path d="M1200,100C1200,44.772 1155.23,0 1100,0C1044.77,0 1000,44.772 1000,100C1000,155.228 1044.77,200 1100,200L1200,200L1200,100Z" style="fill:rgb(255,199,0);fill-rule:nonzero;"/>
        </g>
        <g transform="matrix(1,0,0,1,1252.22,836.396)">
            <path d="M1200,148.275C1200,119.709 1176.84,96.552 1148.28,96.552C1119.71,96.552 1096.55,119.709 1096.55,148.275C1096.55,176.842 1119.71,200 1148.28,200L1200,200L1200,148.275Z" style="fill:rgb(255,116,60);fill-rule:nonzero;"/>
        </g>
        <g transform="matrix(1,0,0,-1,1652.22,1036.4)">
            <path d="M800,100C800,155.228 844.772,200 900,200C955.228,200 1000,155.228 1000,100C1000,44.772 955.228,0 900,0L800,0L800,100Z" style="fill:rgb(110,212,124);fill-rule:nonzero;"/>
        </g>
        <g transform="matrix(1,0,0,-1,1652.22,1036.4)">
            <path d="M800,51.725C800,80.291 823.158,103.448 851.725,103.448C880.291,103.448 903.448,80.291 903.448,51.725C903.448,23.158 880.291,0 851.725,0L800,0L800,51.725Z" style="fill:rgb(45,54,82);fill-rule:nonzero;"/>
        </g>
        <g transform="matrix(-1,0,0,1,3252.15,1036.16)">
            <path d="M800,100C800,155.228 844.772,200 900,200C955.228,200 1000,155.228 1000,100C1000,44.772 955.228,0 900,0L800,0L800,100Z" style="fill:rgb(45,54,82);fill-rule:nonzero;"/>
        </g>
        <g transform="matrix(-1,0,0,1,3252.15,1036.16)">
            <path d="M800,51.725C800,80.291 823.158,103.448 851.725,103.448C880.291,103.448 903.448,80.291 903.448,51.725C903.448,23.158 880.291,0 851.725,0L800,0L800,51.725Z" style="fill:rgb(110,212,124);fill-rule:nonzero;"/>
        </g>
        <g transform="matrix(3.82857e-16,1,-1,3.82857e-16,3080,-597.31)">
            <path d="M1599.31,400C1488.85,400 1399.31,310.456 1399.31,200L1599.31,200L1599.31,400Z" style="fill:rgb(255,116,60);fill-rule:nonzero;"/>
        </g>
        <g transform="matrix(3.82857e-16,1,-1,3.82857e-16,3280,-397.31)">
            <path d="M1599.31,600C1488.85,600 1399.31,510.456 1399.31,400L1599.31,400L1599.31,600Z" style="fill:rgb(110,212,124);fill-rule:nonzero;"/>
        </g>
        <g transform="matrix(3.82857e-16,1,-1,3.82857e-16,3377.93,-397.31)">
            <path d="M1599.31,600C1542.94,600 1497.24,554.303 1497.24,497.931L1599.31,497.931L1599.31,600Z" style="fill:rgb(213,225,85);fill-rule:nonzero;"/>
        </g>
        <g transform="matrix(-6.12323e-17,1,-1,-6.12323e-17,3240.67,67.0105)">
            <path d="M1200,1200.69L1200,1000.69C1200,890.234 1289.54,800.69 1400,800.69L1400,1000.69C1400,1111.15 1310.46,1200.69 1200,1200.69Z" style="fill:rgb(110,212,124);fill-rule:nonzero;"/>
        </g>
        <g transform="matrix(-6.12323e-17,1,-1,-6.12323e-17,3240.67,67.0105)">
            <path d="M1300,1000L1300,900.848C1300,845.532 1344.77,800.69 1400,800.69L1400,899.842C1400,955.157 1355.23,1000 1300,1000Z" style="fill:rgb(45,54,82);fill-rule:nonzero;"/>
        </g>
        <g transform="matrix(6.12323e-17,-1,1,6.12323e-17,1879.31,2600)">
            <path d="M1200,600.69L1000,600.69C889.544,600.69 800,690.234 800,800.69L1000,800.69C1110.46,800.69 1200,711.146 1200,600.69Z" style="fill:rgb(240,241,241);fill-rule:nonzero;"/>
        </g>
        <g transform="matrix(6.12323e-17,-1,1,6.12323e-17,1879.31,2600)">
            <path d="M999.31,700.69L900.159,700.69C844.843,700.69 800,745.462 800,800.69L899.151,800.69C954.469,800.69 999.31,755.918 999.31,700.69Z" style="fill:rgb(45,54,82);fill-rule:nonzero;"/>
        </g>
        <g transform="matrix(6.12323e-17,-1,1,6.12323e-17,1879.31,2600)">
            <path d="M800,800.69L1000,800.69C1110.46,800.69 1200,890.234 1200,1000.69L1000,1000.69C889.544,1000.69 800,911.146 800,800.69Z" style="fill:rgb(45,54,82);fill-rule:nonzero;"/>
        </g>
        <g transform="matrix(6.12323e-17,-1,1,6.12323e-17,1879.31,2600)">
            <path d="M1000,900.69L1099.49,900.69C1155,900.69 1200,945.462 1200,1000.69L1100.51,1000.69C1045,1000.69 1000,955.918 1000,900.69Z" style="fill:rgb(110,212,124);fill-rule:nonzero;"/>
        </g>
        <g transform="matrix(6.12323e-17,-1,1,6.12323e-17,1879.31,2600)">
            <path d="M1140.69,800C1140.69,766.862 1167.55,740 1200.69,740C1233.83,740 1260.69,766.862 1260.69,800C1260.69,833.138 1233.83,860 1200.69,860C1167.55,860 1140.69,833.138 1140.69,800Z" style="fill:rgb(255,116,60);fill-rule:nonzero;"/>
        </g>
        <g transform="matrix(6.12323e-17,-1,1,6.12323e-17,1879.31,2600)">
            <path d="M1171.03,800.345C1171.03,783.777 1184.47,770.345 1201.03,770.345C1217.6,770.345 1231.03,783.777 1231.03,800.345C1231.03,816.913 1217.6,830.345 1201.03,830.345C1184.47,830.345 1171.03,816.913 1171.03,800.345Z" style="fill:rgb(255,199,0);fill-rule:nonzero;"/>
        </g>
        <g transform="matrix(6.12323e-17,-1,1,6.12323e-17,1288.52,1992)">
            <path d="M1140.69,800C1140.69,766.862 1167.55,740 1200.69,740C1233.83,740 1260.69,766.862 1260.69,800C1260.69,833.138 1233.83,860 1200.69,860C1167.55,860 1140.69,833.138 1140.69,800Z" style="fill:rgb(255,116,60);fill-rule:nonzero;"/>
        </g>
        <g transform="matrix(6.12323e-17,-1,1,6.12323e-17,1288.52,1992)">
            <path d="M1171.03,800.345C1171.03,783.777 1184.47,770.345 1201.03,770.345C1217.6,770.345 1231.03,783.777 1231.03,800.345C1231.03,816.913 1217.6,830.345 1201.03,830.345C1184.47,830.345 1171.03,816.913 1171.03,800.345Z" style="fill:rgb(255,199,0);fill-rule:nonzero;"/>
        </g>
        <g transform="matrix(6.12323e-17,-1,1,6.12323e-17,1339.33,2739.31)">
            <path d="M1140.69,800C1140.69,766.862 1167.55,740 1200.69,740C1233.83,740 1260.69,766.862 1260.69,800C1260.69,833.138 1233.83,860 1200.69,860C1167.55,860 1140.69,833.138 1140.69,800Z" style="fill:rgb(255,116,60);fill-rule:nonzero;"/>
        </g>
        <g transform="matrix(6.12323e-17,-1,1,6.12323e-17,1339.33,2739.31)">
            <path d="M1171.03,800.345C1171.03,783.777 1184.47,770.345 1201.03,770.345C1217.6,770.345 1231.03,783.777 1231.03,800.345C1231.03,816.913 1217.6,830.345 1201.03,830.345C1184.47,830.345 1171.03,816.913 1171.03,800.345Z" style="fill:rgb(255,199,0);fill-rule:nonzero;"/>
        </g>
        <g transform="matrix(1,0,0,1,698.614,128.9)">
            <path d="M1000,1100.69C1000,1045.46 1044.77,1000.69 1100,1000.69C1155.23,1000.69 1200,1045.46 1200,1100.69C1200,1155.92 1155.23,1200.69 1100,1200.69C1044.77,1200.69 1000,1155.92 1000,1100.69Z" style="fill:rgb(255,116,60);fill-rule:nonzero;"/>
        </g>
        <g transform="matrix(1,0,0,1,698.269,129.934)">
            <path d="M1044.83,1099.65C1044.83,1069 1069.68,1044.14 1100.35,1044.14C1131.01,1044.14 1155.86,1069 1155.86,1099.65C1155.86,1130.32 1131.01,1155.17 1100.35,1155.17C1069.68,1155.17 1044.83,1130.32 1044.83,1099.65Z" style="fill:rgb(45,54,82);fill-rule:nonzero;"/>
        </g>
        <g transform="matrix(1,0,0,1,-14,2.28424)">
            <g transform="matrix(1,0,0,1,1274.29,1397.72)">
                <path d="M600,0L600,200C600,310.456 689.544,400 800,400L800,200C800,89.544 710.456,0 600,0Z" style="fill:rgb(255,116,60);fill-rule:nonzero;"/>
            </g>
            <g transform="matrix(1,0,0,1,1274.29,1397.72)">
                <path d="M700,200.69L700,299.841C700,355.157 744.772,400 800,400L800,300.849C800,245.531 755.228,200.69 700,200.69Z" style="fill:rgb(45,54,82);fill-rule:nonzero;"/>
            </g>
            <g transform="matrix(1,0,0,1,1274.29,1397.72)">
                <path d="M1200,200L1000,200C889.544,200 800,289.544 800,400L1000,400C1110.46,400 1200,310.456 1200,200Z" style="fill:rgb(45,54,82);fill-rule:nonzero;"/>
            </g>
            <g transform="matrix(1,0,0,1,1274.29,1397.72)">
                <path d="M1000,300L900.506,300C844.998,300 800,344.772 800,400L899.494,400C955.004,400 1000,355.228 1000,300Z" style="fill:rgb(240,241,241);fill-rule:nonzero;"/>
            </g>
        </g>
        <g transform="matrix(-1,0,0,1,2018.97,1199.31)">
            <path d="M300,600.69L300,500.69C300,445.462 255.228,400.69 200,400.69L200,500.69C200,555.918 244.772,600.69 300,600.69Z" style="fill:rgb(45,54,82);fill-rule:nonzero;"/>
        </g>
        <g transform="matrix(-1,0,0,1,2018.97,1198.97)">
            <path d="M300,201.379L300,300.531C300,355.846 255.228,400.69 200,400.69L200,301.538C200,246.22 244.772,201.379 300,201.379Z" style="fill:rgb(213,225,85);fill-rule:nonzero;"/>
        </g>
        <g transform="matrix(1,0,0,1,1599.3,860.094)">
            <path d="M100,500.69L100,600.69C100,655.918 55.228,700.69 0,700.69L0,600.69C0,545.462 44.772,500.69 100,500.69Z" style="fill:rgb(110,212,124);fill-rule:nonzero;"/>
        </g>
        <g transform="matrix(1,0,0,-1,271.881,3340.64)">
            <g transform="matrix(-3.82857e-16,-1,1,-3.82857e-16,246.429,2540.64)">
                <path d="M1000,1200.69C889.544,1200.69 800,1111.15 800,1000.69L1000,1000.69L1000,1200.69Z" style="fill:rgb(240,241,241);fill-rule:nonzero;"/>
            </g>
            <g transform="matrix(1,0,0,1,447.119,539.951)">
                <path d="M800,1200.69C689.542,1200.69 600,1111.15 600,1000.69L800,1000.69L800,1200.69Z" style="fill:rgb(110,212,124);fill-rule:nonzero;"/>
            </g>
            <g transform="matrix(1,0,0,1,447.119,539.951)">
                <path d="M800,1102.76C743.628,1102.76 697.931,1057.06 697.931,1000.69L800,1000.69L800,1102.76Z" style="fill:rgb(213,225,85);fill-rule:nonzero;"/>
            </g>
        </g>
    </g>
</svg>
