<?xml version="1.0" encoding="UTF-8" standalone="no"?>
<!DOCTYPE svg PUBLIC "-//W3C//DTD SVG 1.1//EN" "http://www.w3.org/Graphics/SVG/1.1/DTD/svg11.dtd">
<svg width="100%" height="100%" viewBox="0 0 88 77" version="1.1" xmlns="http://www.w3.org/2000/svg" xmlns:xlink="http://www.w3.org/1999/xlink" xml:space="preserve" xmlns:serif="http://www.serif.com/" style="fill-rule:evenodd;clip-rule:evenodd;stroke-linejoin:round;stroke-miterlimit:2;">
    <g transform="matrix(4.16667,0,0,4.16667,-8.27107,-12.5)">
        <path id="Combined-Shape" d="M16,15.632L16,12C16,10.343 14.657,9 13,9L6.162,9L6.162,5.526C6.162,4.131 7.293,3 8.688,3L20.478,3C21.873,3 23.004,4.131 23.004,5.526L23.004,13.105L23.021,17.787C23.022,18.063 22.799,18.288 22.522,18.289C22.389,18.289 22.261,18.236 22.167,18.142L19.657,15.632L16,15.632Z" style="fill:rgb(58,0,140);"/>
        <path id="Combined-Shape1" serif:id="Combined-Shape" d="M1.985,18L1.985,13C1.985,11.895 2.88,11 3.985,11L11.985,11C13.09,11 13.985,11.895 13.985,13L13.985,18C13.985,19.105 13.09,20 11.985,20L4.101,20L2.857,21.191C2.657,21.381 2.341,21.375 2.15,21.175C2.061,21.082 2.011,20.958 2.011,20.829L2.011,18.324C1.994,18.219 1.985,18.11 1.985,18ZM6.5,14C6.224,14 6,14.224 6,14.5C6,14.776 6.224,15 6.5,15L11.5,15C11.776,15 12,14.776 12,14.5C12,14.224 11.776,14 11.5,14L6.5,14ZM9.5,16C9.224,16 9,16.224 9,16.5C9,16.776 9.224,17 9.5,17L11.5,17C11.776,17 12,16.776 12,16.5C12,16.224 11.776,16 11.5,16L9.5,16Z" style="fill:rgb(255,116,60);fill-opacity:0.3;"/>
    </g>
</svg>
