<?xml version="1.0" encoding="UTF-8" standalone="no"?>
<!DOCTYPE svg PUBLIC "-//W3C//DTD SVG 1.1//EN" "http://www.w3.org/Graphics/SVG/1.1/DTD/svg11.dtd">
<svg width="100%" height="100%" viewBox="0 0 857 143" version="1.1" xmlns="http://www.w3.org/2000/svg" xmlns:xlink="http://www.w3.org/1999/xlink" xml:space="preserve" xmlns:serif="http://www.serif.com/" style="fill-rule:evenodd;clip-rule:evenodd;stroke-linejoin:round;stroke-miterlimit:2;">
    <g transform="matrix(1,0,0,1,-850,-1179.98)">
        <g>
            <g transform="matrix(200,0,0,200,842,1281.98)">
                <path d="M0.33,-0.009C0.361,-0.021 0.39,-0.037 0.415,-0.058C0.441,-0.079 0.464,-0.103 0.483,-0.13C0.503,-0.157 0.52,-0.185 0.533,-0.215C0.546,-0.245 0.557,-0.275 0.564,-0.305C0.571,-0.335 0.574,-0.364 0.574,-0.391C0.574,-0.416 0.572,-0.439 0.569,-0.458C0.565,-0.477 0.56,-0.495 0.555,-0.51C0.548,-0.51 0.539,-0.509 0.528,-0.506C0.517,-0.503 0.507,-0.5 0.496,-0.496C0.485,-0.491 0.474,-0.486 0.464,-0.481C0.454,-0.476 0.446,-0.471 0.439,-0.466L0.439,-0.444L0.538,-0.35C0.532,-0.291 0.519,-0.241 0.499,-0.199C0.48,-0.156 0.458,-0.122 0.433,-0.095C0.409,-0.068 0.385,-0.048 0.36,-0.035C0.335,-0.022 0.315,-0.016 0.3,-0.016C0.293,-0.016 0.286,-0.018 0.279,-0.021C0.273,-0.024 0.267,-0.028 0.262,-0.035C0.257,-0.041 0.254,-0.049 0.251,-0.059C0.249,-0.069 0.249,-0.081 0.25,-0.095L0.29,-0.434C0.291,-0.449 0.29,-0.462 0.287,-0.472C0.284,-0.481 0.28,-0.489 0.274,-0.495C0.268,-0.5 0.261,-0.504 0.254,-0.507C0.247,-0.509 0.239,-0.51 0.232,-0.51C0.219,-0.51 0.204,-0.507 0.188,-0.501C0.172,-0.494 0.155,-0.486 0.138,-0.476C0.121,-0.466 0.103,-0.455 0.086,-0.443C0.069,-0.43 0.054,-0.418 0.04,-0.406L0.045,-0.401L0.135,-0.46L0.139,-0.456L0.117,-0.31L0.101,-0.16C0.095,-0.104 0.104,-0.062 0.127,-0.033C0.151,-0.004 0.185,0.01 0.229,0.01C0.266,0.01 0.299,0.004 0.33,-0.009Z" style="fill:rgb(21,21,21);fill-rule:nonzero;"/>
            </g>
            <g transform="matrix(200,0,0,200,944.504,1281.98)">
                <path d="M0.544,-0.044L0.563,-0.19L0.59,-0.477C0.55,-0.49 0.513,-0.499 0.479,-0.504C0.444,-0.508 0.415,-0.51 0.39,-0.51C0.327,-0.51 0.274,-0.5 0.231,-0.481C0.188,-0.462 0.154,-0.437 0.128,-0.406C0.102,-0.375 0.084,-0.34 0.073,-0.301C0.062,-0.262 0.056,-0.223 0.056,-0.184C0.056,-0.155 0.059,-0.129 0.065,-0.105C0.07,-0.082 0.079,-0.061 0.091,-0.044C0.103,-0.027 0.119,-0.014 0.138,-0.004C0.157,0.005 0.179,0.01 0.206,0.01C0.236,0.01 0.262,0.006 0.283,-0.003C0.304,-0.012 0.322,-0.026 0.338,-0.044C0.354,-0.062 0.368,-0.085 0.38,-0.113C0.392,-0.141 0.404,-0.174 0.416,-0.212L0.421,-0.212L0.396,-0.066C0.393,-0.051 0.393,-0.039 0.396,-0.03C0.398,-0.02 0.402,-0.012 0.408,-0.006C0.413,0 0.42,0.004 0.427,0.006C0.434,0.009 0.441,0.01 0.448,0.01C0.461,0.01 0.475,0.007 0.492,0.001C0.508,-0.005 0.525,-0.013 0.542,-0.023C0.559,-0.033 0.577,-0.044 0.594,-0.057C0.611,-0.069 0.626,-0.081 0.64,-0.094L0.635,-0.099L0.547,-0.04L0.544,-0.044ZM0.436,-0.489L0.417,-0.291C0.414,-0.257 0.407,-0.224 0.398,-0.192C0.388,-0.159 0.377,-0.13 0.364,-0.105C0.351,-0.079 0.336,-0.058 0.321,-0.043C0.306,-0.028 0.291,-0.02 0.277,-0.02C0.267,-0.02 0.259,-0.026 0.252,-0.038C0.245,-0.05 0.239,-0.065 0.235,-0.083C0.23,-0.101 0.227,-0.12 0.225,-0.141C0.223,-0.161 0.222,-0.179 0.222,-0.195C0.222,-0.223 0.224,-0.255 0.229,-0.29C0.233,-0.325 0.241,-0.359 0.252,-0.39C0.263,-0.421 0.279,-0.447 0.299,-0.468C0.318,-0.489 0.343,-0.5 0.374,-0.5C0.387,-0.5 0.399,-0.499 0.41,-0.496C0.421,-0.493 0.43,-0.491 0.436,-0.489Z" style="fill:rgb(21,21,21);fill-rule:nonzero;"/>
            </g>
            <g transform="matrix(200,0,0,200,1060.3,1281.98)">
                <path d="M0.269,-0.302L0.285,-0.434C0.288,-0.449 0.288,-0.461 0.285,-0.471C0.282,-0.48 0.278,-0.488 0.273,-0.494C0.267,-0.5 0.26,-0.504 0.253,-0.507C0.246,-0.509 0.239,-0.51 0.232,-0.51C0.219,-0.51 0.204,-0.507 0.188,-0.501C0.172,-0.494 0.155,-0.486 0.138,-0.476C0.121,-0.466 0.104,-0.455 0.087,-0.443C0.07,-0.43 0.054,-0.418 0.04,-0.406L0.045,-0.401L0.134,-0.46L0.138,-0.456L0.117,-0.31L0.101,-0.16L0.076,0L0.09,0.01L0.244,-0.01L0.264,-0.183C0.27,-0.239 0.279,-0.286 0.291,-0.323C0.303,-0.36 0.316,-0.39 0.33,-0.412C0.344,-0.434 0.358,-0.45 0.373,-0.459C0.387,-0.468 0.399,-0.472 0.409,-0.472C0.422,-0.472 0.432,-0.467 0.441,-0.457C0.45,-0.447 0.453,-0.428 0.45,-0.4L0.41,-0.066C0.408,-0.051 0.409,-0.038 0.412,-0.028C0.415,-0.018 0.42,-0.01 0.426,-0.005C0.432,0.001 0.439,0.005 0.446,0.007C0.453,0.009 0.461,0.01 0.468,0.01C0.481,0.01 0.495,0.007 0.512,0.001C0.528,-0.005 0.545,-0.013 0.562,-0.023C0.579,-0.033 0.597,-0.044 0.614,-0.057C0.631,-0.069 0.646,-0.081 0.66,-0.094L0.655,-0.099L0.569,-0.041L0.565,-0.044L0.582,-0.19L0.599,-0.34C0.604,-0.394 0.597,-0.436 0.578,-0.466C0.559,-0.495 0.527,-0.51 0.483,-0.51C0.469,-0.51 0.453,-0.508 0.435,-0.505C0.416,-0.502 0.397,-0.493 0.378,-0.48C0.359,-0.466 0.34,-0.445 0.322,-0.418C0.303,-0.39 0.287,-0.351 0.274,-0.302L0.269,-0.302Z" style="fill:rgb(21,21,21);fill-rule:nonzero;"/>
            </g>
            <g transform="matrix(200,0,0,200,1182.7,1281.98)">
                <path d="M0.556,-0.135L0.593,-0.477C0.553,-0.49 0.516,-0.499 0.481,-0.504C0.446,-0.508 0.417,-0.51 0.392,-0.51C0.329,-0.51 0.276,-0.501 0.233,-0.482C0.19,-0.463 0.156,-0.438 0.129,-0.408C0.103,-0.377 0.084,-0.343 0.073,-0.306C0.062,-0.268 0.056,-0.23 0.056,-0.192C0.056,-0.164 0.06,-0.138 0.069,-0.115C0.078,-0.091 0.091,-0.071 0.106,-0.054C0.121,-0.037 0.139,-0.023 0.159,-0.014C0.179,-0.005 0.2,0 0.223,0C0.244,0 0.263,-0.002 0.28,-0.007C0.298,-0.012 0.315,-0.022 0.33,-0.037C0.346,-0.052 0.361,-0.073 0.374,-0.101C0.388,-0.129 0.402,-0.166 0.415,-0.212L0.42,-0.212C0.413,-0.147 0.404,-0.09 0.391,-0.039C0.379,0.011 0.365,0.053 0.348,0.088C0.331,0.123 0.313,0.149 0.292,0.167C0.271,0.186 0.249,0.195 0.226,0.195C0.221,0.195 0.212,0.194 0.201,0.192C0.19,0.191 0.181,0.187 0.172,0.182L0.089,0.035L0.079,0.035C0.076,0.048 0.071,0.064 0.066,0.084C0.061,0.105 0.058,0.124 0.057,0.141C0.074,0.157 0.098,0.171 0.127,0.184C0.156,0.197 0.193,0.204 0.237,0.204C0.282,0.204 0.324,0.195 0.361,0.178C0.398,0.161 0.43,0.138 0.457,0.108C0.484,0.078 0.506,0.042 0.523,0.001C0.54,-0.04 0.551,-0.086 0.556,-0.135ZM0.436,-0.489L0.421,-0.324C0.416,-0.274 0.409,-0.23 0.399,-0.192C0.388,-0.154 0.376,-0.122 0.363,-0.097C0.35,-0.072 0.335,-0.053 0.32,-0.04C0.305,-0.027 0.29,-0.021 0.276,-0.021C0.266,-0.021 0.258,-0.028 0.251,-0.042C0.244,-0.055 0.239,-0.072 0.235,-0.091C0.23,-0.111 0.227,-0.132 0.225,-0.154C0.223,-0.176 0.222,-0.195 0.222,-0.211C0.222,-0.239 0.225,-0.27 0.23,-0.304C0.235,-0.337 0.243,-0.369 0.255,-0.398C0.267,-0.427 0.283,-0.451 0.303,-0.471C0.322,-0.49 0.347,-0.5 0.376,-0.5C0.389,-0.5 0.401,-0.499 0.412,-0.496C0.422,-0.493 0.43,-0.491 0.436,-0.489Z" style="fill:rgb(21,21,21);fill-rule:nonzero;"/>
            </g>
            <g transform="matrix(200,0,0,200,1297,1281.98)">
                <path d="M0.446,-0.36C0.453,-0.385 0.459,-0.412 0.462,-0.44C0.465,-0.467 0.468,-0.491 0.471,-0.51C0.457,-0.51 0.441,-0.506 0.422,-0.497C0.403,-0.488 0.384,-0.473 0.365,-0.453C0.346,-0.432 0.327,-0.406 0.31,-0.373C0.293,-0.34 0.279,-0.3 0.269,-0.252L0.264,-0.252L0.285,-0.434C0.287,-0.449 0.287,-0.461 0.284,-0.471C0.281,-0.481 0.276,-0.489 0.271,-0.495C0.266,-0.5 0.259,-0.504 0.252,-0.507C0.245,-0.509 0.238,-0.51 0.231,-0.51C0.218,-0.51 0.203,-0.507 0.187,-0.501C0.171,-0.494 0.155,-0.486 0.138,-0.476C0.121,-0.466 0.104,-0.455 0.087,-0.443C0.07,-0.43 0.054,-0.418 0.04,-0.406L0.045,-0.401L0.134,-0.46L0.138,-0.456L0.117,-0.31L0.101,-0.16L0.076,0L0.09,0.01L0.244,-0.01L0.265,-0.191C0.27,-0.229 0.278,-0.259 0.289,-0.282C0.3,-0.304 0.313,-0.321 0.328,-0.333C0.343,-0.344 0.361,-0.352 0.381,-0.355C0.4,-0.358 0.422,-0.36 0.446,-0.36Z" style="fill:rgb(21,21,21);fill-rule:nonzero;"/>
            </g>
            <g transform="matrix(200,0,0,200,1373.3,1281.98)">
                <path d="M0.392,-0.01C0.427,-0.023 0.459,-0.043 0.488,-0.068C0.517,-0.093 0.54,-0.125 0.557,-0.162C0.575,-0.199 0.584,-0.241 0.584,-0.288C0.584,-0.327 0.578,-0.361 0.566,-0.389C0.554,-0.417 0.538,-0.44 0.517,-0.458C0.496,-0.476 0.472,-0.489 0.444,-0.498C0.417,-0.506 0.387,-0.51 0.356,-0.51C0.32,-0.51 0.284,-0.503 0.248,-0.49C0.213,-0.477 0.181,-0.457 0.152,-0.432C0.123,-0.407 0.1,-0.376 0.082,-0.339C0.065,-0.302 0.056,-0.259 0.056,-0.211C0.056,-0.172 0.062,-0.138 0.074,-0.11C0.086,-0.082 0.102,-0.059 0.123,-0.042C0.144,-0.024 0.169,-0.011 0.196,-0.003C0.223,0.006 0.253,0.01 0.284,0.01C0.32,0.01 0.356,0.003 0.392,-0.01ZM0.248,-0.025C0.238,-0.041 0.231,-0.062 0.226,-0.087C0.222,-0.112 0.22,-0.14 0.22,-0.171C0.221,-0.202 0.223,-0.231 0.226,-0.26C0.229,-0.29 0.234,-0.32 0.24,-0.349C0.246,-0.378 0.254,-0.403 0.263,-0.426C0.273,-0.448 0.285,-0.466 0.298,-0.48C0.312,-0.493 0.328,-0.5 0.346,-0.5C0.365,-0.5 0.38,-0.492 0.391,-0.476C0.402,-0.459 0.409,-0.438 0.413,-0.413C0.418,-0.388 0.42,-0.36 0.419,-0.329C0.418,-0.298 0.417,-0.269 0.414,-0.24C0.411,-0.21 0.406,-0.181 0.4,-0.152C0.394,-0.123 0.386,-0.097 0.376,-0.075C0.367,-0.052 0.355,-0.034 0.341,-0.02C0.328,-0.007 0.312,0 0.293,0C0.274,0 0.259,-0.008 0.248,-0.025Z" style="fill:rgb(21,21,21);fill-rule:nonzero;"/>
            </g>
            <g transform="matrix(200,0,0,200,1481.5,1281.98)">
                <path d="M0.33,-0.009C0.361,-0.021 0.39,-0.037 0.415,-0.058C0.441,-0.079 0.464,-0.103 0.483,-0.13C0.503,-0.157 0.52,-0.185 0.533,-0.215C0.546,-0.245 0.557,-0.275 0.564,-0.305C0.571,-0.335 0.574,-0.364 0.574,-0.391C0.574,-0.416 0.572,-0.439 0.569,-0.458C0.565,-0.477 0.56,-0.495 0.555,-0.51C0.548,-0.51 0.539,-0.509 0.528,-0.506C0.517,-0.503 0.507,-0.5 0.496,-0.496C0.485,-0.491 0.474,-0.486 0.464,-0.481C0.454,-0.476 0.446,-0.471 0.439,-0.466L0.439,-0.444L0.538,-0.35C0.532,-0.291 0.519,-0.241 0.499,-0.199C0.48,-0.156 0.458,-0.122 0.433,-0.095C0.409,-0.068 0.385,-0.048 0.36,-0.035C0.335,-0.022 0.315,-0.016 0.3,-0.016C0.293,-0.016 0.286,-0.018 0.279,-0.021C0.273,-0.024 0.267,-0.028 0.262,-0.035C0.257,-0.041 0.254,-0.049 0.251,-0.059C0.249,-0.069 0.249,-0.081 0.25,-0.095L0.29,-0.434C0.291,-0.449 0.29,-0.462 0.287,-0.472C0.284,-0.481 0.28,-0.489 0.274,-0.495C0.268,-0.5 0.261,-0.504 0.254,-0.507C0.247,-0.509 0.239,-0.51 0.232,-0.51C0.219,-0.51 0.204,-0.507 0.188,-0.501C0.172,-0.494 0.155,-0.486 0.138,-0.476C0.121,-0.466 0.103,-0.455 0.086,-0.443C0.069,-0.43 0.054,-0.418 0.04,-0.406L0.045,-0.401L0.135,-0.46L0.139,-0.456L0.117,-0.31L0.101,-0.16C0.095,-0.104 0.104,-0.062 0.127,-0.033C0.151,-0.004 0.185,0.01 0.229,0.01C0.266,0.01 0.299,0.004 0.33,-0.009Z" style="fill:rgb(21,21,21);fill-rule:nonzero;"/>
            </g>
            <g transform="matrix(200,0,0,200,1585.5,1281.98)">
                <path d="M0.367,0.003C0.389,-0.002 0.409,-0.008 0.427,-0.015C0.444,-0.022 0.46,-0.029 0.474,-0.037C0.488,-0.045 0.501,-0.053 0.512,-0.06L0.506,-0.065C0.486,-0.06 0.466,-0.055 0.445,-0.051C0.424,-0.047 0.402,-0.045 0.379,-0.045C0.353,-0.045 0.33,-0.05 0.311,-0.061C0.292,-0.071 0.276,-0.085 0.263,-0.103C0.25,-0.12 0.241,-0.141 0.235,-0.164C0.229,-0.187 0.226,-0.212 0.226,-0.238C0.302,-0.241 0.362,-0.248 0.406,-0.26C0.449,-0.272 0.482,-0.286 0.503,-0.302C0.524,-0.317 0.538,-0.333 0.543,-0.35C0.548,-0.367 0.551,-0.381 0.551,-0.394C0.551,-0.407 0.547,-0.421 0.54,-0.435C0.533,-0.449 0.521,-0.462 0.506,-0.473C0.491,-0.484 0.471,-0.493 0.448,-0.5C0.425,-0.507 0.397,-0.51 0.365,-0.51C0.318,-0.51 0.275,-0.502 0.237,-0.487C0.198,-0.472 0.166,-0.451 0.139,-0.424C0.112,-0.397 0.092,-0.365 0.078,-0.329C0.063,-0.293 0.056,-0.254 0.056,-0.212C0.056,-0.182 0.061,-0.154 0.072,-0.127C0.082,-0.1 0.097,-0.076 0.118,-0.056C0.138,-0.036 0.163,-0.02 0.193,-0.008C0.222,0.004 0.256,0.01 0.295,0.01C0.321,0.01 0.345,0.008 0.367,0.003ZM0.236,-0.327C0.241,-0.356 0.25,-0.384 0.261,-0.41C0.272,-0.435 0.285,-0.457 0.302,-0.474C0.318,-0.491 0.337,-0.5 0.358,-0.5C0.368,-0.5 0.376,-0.497 0.383,-0.491C0.39,-0.484 0.395,-0.477 0.399,-0.469C0.403,-0.46 0.406,-0.452 0.408,-0.443C0.409,-0.434 0.41,-0.428 0.41,-0.423C0.41,-0.408 0.408,-0.392 0.405,-0.373C0.402,-0.354 0.394,-0.336 0.381,-0.319C0.368,-0.302 0.35,-0.287 0.326,-0.274C0.301,-0.261 0.268,-0.252 0.226,-0.248C0.227,-0.271 0.23,-0.298 0.236,-0.327Z" style="fill:rgb(21,21,21);fill-rule:nonzero;"/>
            </g>
            <g transform="matrix(1.03982,0,0,0.707853,-41.4226,373.34)">
                <path d="M1177.53,1305.58C1177.53,1303.63 1176.45,1302.05 1175.13,1302.05C1147.34,1302.05 887.478,1302.05 859.688,1302.05C858.36,1302.05 857.284,1303.63 857.284,1305.58C857.284,1305.58 857.284,1305.58 857.284,1305.58C857.284,1307.53 858.36,1309.11 859.688,1309.11C887.478,1309.11 1147.34,1309.11 1175.13,1309.11C1176.45,1309.11 1177.53,1307.53 1177.53,1305.58C1177.53,1305.58 1177.53,1305.58 1177.53,1305.58Z" style="fill:rgb(21,21,21);"/>
            </g>
            <g transform="matrix(1.20204,0,0,0.707853,274.51,373.34)">
                <path d="M1177.53,1305.58C1177.53,1304.64 1177.31,1303.75 1176.92,1303.08C1176.53,1302.42 1176,1302.05 1175.45,1302.05C1149.34,1302.05 885.486,1302.05 859.363,1302.05C858.215,1302.05 857.284,1303.63 857.284,1305.58L857.284,1305.58C857.284,1307.53 858.215,1309.11 859.363,1309.11L1175.45,1309.11C1176,1309.11 1176.53,1308.74 1176.92,1308.08C1177.31,1307.42 1177.53,1306.52 1177.53,1305.58C1177.53,1305.58 1177.53,1305.58 1177.53,1305.58Z" style="fill:rgb(21,21,21);"/>
            </g>
            <g transform="matrix(0.780016,0,0,0.780016,367.614,288.093)">
                <ellipse cx="1709.43" cy="1289.6" rx="7.692" ry="7.689" style="fill:rgb(21,21,21);"/>
            </g>
        </g>
    </g>
</svg>
